<?xml version="1.0" encoding="UTF-8" standalone="no"?>
<svg
   width="144"
   height="144"
   viewBox="0 0 38.1 38.1"
   version="1.1"
   id="svg3"
   sodipodi:docname="map-crate-30.svg"
   xml:space="preserve"
   inkscape:version="1.4.2 (ebf0e940d0, 2025-05-08)"
   xmlns:inkscape="http://www.inkscape.org/namespaces/inkscape"
   xmlns:sodipodi="http://sodipodi.sourceforge.net/DTD/sodipodi-0.dtd"
   xmlns="http://www.w3.org/2000/svg"
   xmlns:svg="http://www.w3.org/2000/svg"><defs
     id="defs3"><clipPath
       clipPathUnits="userSpaceOnUse"
       id="clipPath3"><rect
         style="fill:#000000;fill-opacity:1;stroke-width:0.263655"
         id="rect4"
         width="16.43619"
         height="14.84559"
         x="-50.103863"
         y="21.605633"
         ry="0" /></clipPath><clipPath
       id="a"><path
         d="m -45.534,209.35 29.33,16.933 v 33.867 l -29.33,16.933 -29.33,-16.933 v -33.867 z"
         fill-opacity="0.506"
         stroke="#ffffff"
         stroke-width="2.117"
         stroke-opacity="0.502"
         id="path1-7" /></clipPath></defs><sodipodi:namedview
     id="namedview3"
     pagecolor="#ffffff"
     bordercolor="#000000"
     borderopacity="0.25"
     inkscape:showpageshadow="2"
     inkscape:pageopacity="0.0"
     inkscape:pagecheckerboard="0"
     inkscape:deskcolor="#d1d1d1"
     inkscape:zoom="1.4114583"
     inkscape:cx="-146.30258"
     inkscape:cy="95.291513"
     inkscape:window-width="1920"
     inkscape:window-height="1017"
     inkscape:window-x="0"
     inkscape:window-y="0"
     inkscape:window-maximized="1"
     inkscape:current-layer="svg3" /><g
     transform="translate(0 -258.9)"
     stroke="#191919"
     id="g3"><rect
       width="36.142"
       height="36.142"
       x=".979"
       y="259.879"
       rx="0"
       fill="#630"
       stroke-width="1.958"
       id="rect1"
       style="fill:#fa4d03;fill-opacity:1" /><path
       fill="#4d2600"
       stroke-width="2"
       d="m 6.96,265.86 h 24.18 v 24.18 H 6.96 Z"
       id="path1"
       sodipodi:nodetypes="ccccc"
       style="fill:#fa2f03;fill-opacity:1" /><path
       d="M6.969 285.108l19.245-19.213 4.925-.037-.02 5.133-19.086 18.991-5.074.056z"
       fill="#630"
       stroke-width="2"
       id="path3"
       style="fill:#fe721e;fill-opacity:1"
       transform="translate(0)" /><path
       d="M11.892 265.869l19.213 19.245.037 4.925-5.133-.02-18.991-19.086-.056-5.074z"
       fill="#630"
       stroke-width="2"
       id="path2"
       style="fill:#fe721e;fill-opacity:1" /></g><path
     transform="matrix(-0.21511861,-0.12419879,0.12419879,-0.21511861,-20.41878,65.658641)"
     d="m -45.534,209.35 29.33,16.933 v 33.867 l -29.33,16.933 -29.33,-16.933 v -33.867 z"
     clip-path="url(#a)"
     stroke-width="4.011"
     stroke="#ffffff"
     id="path2-5"
     style="stroke:#e0670e;stroke-opacity:1" /><path
     d="m 19.58354,14.022141 a 4.9714514,4.9714514 0 0 0 -4.971451,4.97145 4.9714514,4.9714514 0 0 0 4.971451,4.971451 4.9714514,4.9714514 0 0 0 4.971452,-4.971451 4.9714514,4.9714514 0 0 0 -4.971452,-4.97145 z m -2.242059,1.669612 5.00592,2.87045 c 0,0 0.210791,0.160675 0.307038,0.257189 a 2.2615464,2.2615464 0 0 1 0.66445,1.604121 c 0,0.580268 -0.221527,1.160536 -0.66445,1.603194 -0.885581,0.885715 -2.321866,0.885715 -3.20758,0 -0.0399,-0.03978 -0.114008,-0.122762 -0.114008,-0.122762 l -2.582371,-3.503613 1.185592,0.566347 -1.73603,-2.091191 1.801786,0.908914 -1.812128,-2.058844 2.040416,1.169948 z m 2.324122,1.815706 a 0.47792219,0.47792219 0 0 0 0,0.955712 0.47765705,0.47765705 0 0 0 0.477524,-0.477922 0.47765705,0.47765705 0 0 0 -0.477524,-0.47779 z m -1.376497,0.59843 a 0.20217236,0.20217236 0 0 0 0,0.404213 0.2021725,0.2021725 0 0 0 0,-0.404345 z m 2.562618,0.652254 -0.114676,0.762024 -0.581991,-0.5051 0.204957,0.742802 -0.737101,-0.224842 0.489589,0.595249 -0.765074,0.09452 0.689375,0.344685 -0.660341,0.397452 0.769977,0.03446 -0.441729,0.631706 0.717479,-0.281716 -0.146491,0.756721 0.540895,-0.548981 0.173933,0.750888 0.270845,-0.72159 0.464267,0.615134 -0.0464,-0.769447 0.674526,0.373322 -0.355292,-0.684072 0.768121,0.06656 -0.602805,-0.480574 0.728615,-0.25149 -0.745981,-0.193952 0.563431,-0.52578 -0.760434,0.12634 0.30094,-0.709791 -0.643506,0.424629 -0.01406,-0.770509 -0.414817,0.649603 -0.326127,-0.698257 z m -2.126454,0.466654 a 0.28847676,0.28847676 0 1 0 0,0.576822 0.28847705,0.28847705 0 0 0 0,-0.576954 z"
     fill="#fefefe"
     stroke-width="0.814788"
     stroke-linecap="round"
     stroke-opacity="0.988"
     id="path3-2"
     style="fill:#fc740d;fill-opacity:1" /></svg>
