<?xml version="1.0" encoding="UTF-8" standalone="no"?>
<svg
   width="288"
   height="288"
   viewBox="0 0 76.2 76.2"
   version="1.1"
   id="svg6"
   xmlns="http://www.w3.org/2000/svg"
   xmlns:svg="http://www.w3.org/2000/svg"
   xmlns:rdf="http://www.w3.org/1999/02/22-rdf-syntax-ns#"
   xmlns:cc="http://creativecommons.org/ns#"
   xmlns:dc="http://purl.org/dc/elements/1.1/">
  <metadata
     id="metadata12">
    <rdf:RDF>
      <cc:Work
         rdf:about="">
        <dc:format>image/svg+xml</dc:format>
        <dc:type
           rdf:resource="http://purl.org/dc/dcmitype/StillImage" />
        <dc:title />
      </cc:Work>
    </rdf:RDF>
  </metadata>
  <defs
     id="defs10">
    <clipPath
       clipPathUnits="userSpaceOnUse"
       id="clipPath847">
      <path
         style="fill:#6c6c6c;fill-opacity:1;stroke:#2d2d2d;stroke-width:2.48946;stroke-miterlimit:4;stroke-dasharray:none"
         d="m 44.149071,2.3893563 c 9.800254,1.9820025 14.075238,3.7690213 19.882371,9.9024657 5.807128,6.131363 9.83633,15.359928 10.301901,25.159719 0.467646,9.797714 -2.986362,20.045238 -9.25282,26.581893 -6.264386,6.536661 -15.33915,9.358297 -24.203647,9.825943 C 32.010297,74.324948 25.506244,73.987927 19.430997,70.64997 13.35575,67.312016 7.7155479,60.977277 5.3419822,56.043087 2.9684168,51.110975 1.9541436,45.910746 1.8356731,40.192989 1.7192811,34.475232 2.494535,27.163818 4.9741005,21.647667 7.4536657,16.133596 10.909038,12.301686 15.038875,9.0343958 19.166634,5.767106 22.530555,4.4965033 27.092706,3.2785442 32.056411,2.5086953 34.855608,1.7986587 44.149071,2.3893563 Z"
         id="path849" />
    </clipPath>
  </defs>
  <path
     id="path845"
     d="m 44.14907,2.3893563 c 9.800256,1.9820026 14.075238,3.7690214 19.882371,9.9024657 5.80713,6.131363 9.836331,15.359929 10.301903,25.159719 0.467645,9.797713 -2.986362,20.045238 -9.252822,26.581893 -6.264386,6.536661 -15.339148,9.358298 -24.203647,9.825943 C 32.010298,74.324948 25.506244,73.987928 19.430997,70.64997 13.35575,67.312017 7.7155478,60.977277 5.3419822,56.043086 2.9684167,51.110975 1.9541436,45.910746 1.8356731,40.192989 1.7192811,34.475231 2.494535,27.163818 4.9741004,21.647667 7.4536658,16.133596 10.909038,12.301686 15.038875,9.0343959 19.166634,5.767106 22.530555,4.4965032 27.092707,3.2785442 32.05641,2.5086953 34.855607,1.7986587 44.14907,2.3893563 Z"
     style="display:inline;fill:#4f4f4f;fill-opacity:1;stroke:#2d2d2d;stroke-width:4.7625;stroke-miterlimit:4;stroke-dasharray:none"
     clip-path="url(#clipPath847)" />
  <path
     style="display:inline;fill:#f17a2f;fill-opacity:0.486275;stroke:none;stroke-width:2.38125;stroke-linecap:round;stroke-linejoin:miter;stroke-miterlimit:4;stroke-dasharray:none;stroke-opacity:1"
     d="M 38.261231,2.1709269 C 33.320603,2.1575108 30.815698,2.7009661 27.09292,3.2783528 22.530768,4.4963119 19.166634,5.7673006 15.038875,9.0345904 10.909038,12.301881 7.4534219,16.133703 4.9738565,21.647774 2.4942912,27.163924 1.7191548,34.475136 1.8355469,40.192896 c 0.1184704,5.717757 1.1326804,10.918084 3.5062458,15.850195 2.3735657,4.934191 8.0138153,11.268906 14.0890623,14.60686 6.075247,3.337957 12.579659,3.675195 21.446235,3.209623 8.864499,-0.467645 17.938789,-3.289612 24.203175,-9.826275 6.266458,-6.536653 9.720826,-16.784127 9.253181,-26.581838 C 73.867874,27.65167 69.838363,18.423119 64.031232,12.291756 58.224099,6.1583117 53.949499,4.3715207 44.149242,2.3895182 41.825878,2.2418438 39.908106,2.1753989 38.261231,2.1709269 Z m 5.659747,6.9537301 c 7.943689,1.41696 10.758681,2.103989 16.565814,8.237433 5.80713,6.131363 6.504236,11.734578 7.211967,20.323564 0.467646,9.797711 -0.703902,14.203489 -6.97036,20.740142 C 54.464013,64.96246 48.405917,67.046665 42.44735,67.837192 33.580773,68.302763 30.218134,68.529726 24.327857,64.875245 18.817652,61.456572 15.566978,58.42455 13.354853,54.620445 8.1184376,44.607083 7.2056796,38.6716 9.7325846,30.139444 11.969989,24.948256 13.659292,21.070524 19.161375,15.865946 25.439777,10.405755 34.419254,8.220826 43.920978,9.124657 Z"
     id="rect840" />
  <path
     style="fill:#616161;fill-opacity:1;stroke-width:1.98816"
     d="m 53.971849,17.294885 c 4.464947,4.329988 8.532828,11.467644 3.681271,16.319195 -4.850148,4.850148 -14.803997,3.724722 -18.61653,-0.648363 -2.537646,-3.904584 -4.539895,-9.808257 -1.035135,-13.217419 7.119497,-6.556039 12.423859,-5.688191 15.970394,-2.453413 z"
     id="path4-5" />
</svg>
