<?xml version="1.0" encoding="UTF-8" standalone="no"?>
<svg
   width="128"
   height="128"
   version="1.1"
   id="svg13"
   sodipodi:docname="loot-melee-karambit-drowned.svg"
   inkscape:export-filename="loot-melee-karambit-winner1.svg"
   inkscape:export-xdpi="96"
   inkscape:export-ydpi="96"
   xmlns:inkscape="http://www.inkscape.org/namespaces/inkscape"
   xmlns:sodipodi="http://sodipodi.sourceforge.net/DTD/sodipodi-0.dtd"
   xmlns="http://www.w3.org/2000/svg"
   xmlns:svg="http://www.w3.org/2000/svg">
  <sodipodi:namedview
     id="namedview13"
     pagecolor="#ffffff"
     bordercolor="#000000"
     borderopacity="0.25"
     inkscape:showpageshadow="2"
     inkscape:pageopacity="0.0"
     inkscape:pagecheckerboard="0"
     inkscape:deskcolor="#d1d1d1">
    <inkscape:page
       x="0"
       y="0"
       width="128"
       height="128"
       id="page2"
       margin="0"
       bleed="0" />
  </sodipodi:namedview>
  <defs
     id="defs9" />
  <g
     id="g42"
     transform="matrix(-0.30390685,0,0,0.30390685,193.8628,-66.023048)"
     style="display:inline">
    <g
       fill="None"
       fill-opacity="0"
       stroke="#5d5d5d"
       stroke-opacity="1"
       stroke-width="0.3"
       id="g2"
       transform="matrix(-0.42771021,-0.39362579,0.39362579,-0.42771021,448.18368,727.35014)">
      <path
         d="m 491,194 c 9.67,0 19.33,0 29,0 -0.04,0 0,-1 0,-1 -9.67,0 -20.03,0.13 -29,1 z"
         id="path2" />
    </g>
    <g
       fill="None"
       fill-opacity="0"
       stroke="#a3a3a2"
       stroke-opacity="1"
       stroke-width="0.3"
       id="g3"
       transform="matrix(-0.42771021,-0.39362579,0.39362579,-0.42771021,448.18368,727.35014)">
      <path
         d="m 520,194 c 3.28,0 6.73,-0.31 10,0 -2.91,-0.61 -6.4,-1 -10,-1 0,0 -0.04,1 0,1 z"
         id="path3" />
    </g>
    <g
       fill="None"
       fill-opacity="0"
       stroke="#030202"
       stroke-opacity="1"
       stroke-width="0.3"
       id="g4"
       transform="matrix(-0.42771021,-0.39362579,0.39362579,-0.42771021,448.18368,727.35014)">
      <path
         d="m 352,241 c -1.73,1.16 -3.68,4.11 -5.75,1.74 -2.06,-2.37 -3.52,-4.53 -6.25,-2.74 -7.03,7.03 -9.12,20.4 -16.23,27.77 -7.11,7.37 -11.17,17.05 -19.02,23.98 -7.85,6.93 -13.5,15.3 -22.67,20.33 -9.17,5.03 -14.89,13.49 -20.78,22.22 -5.88,8.73 -9.96,18.52 -14.99,28.01 -5.04,9.48 -9.41,19.8 -14.54,29.46 -5.13,9.66 -9.06,19.69 -13,30 -3.94,10.31 -9.7,19.84 -11.99,31.01 -2.29,11.17 -8.3,22.36 -8.78,34.22 -0.48,11.86 -5.89,23.72 -8,35 3.56,3.43 -0.06,14.27 0,18 3.92,18.97 18.11,33.94 22,53 20.1,-8.18 42.74,-4.92 62,-16 3.79,-2.96 8.78,-7.3 12,-11 6.24,-8.39 12.42,-18.2 13,-29 0.58,-10.8 -0.29,-25.19 -8.23,-33.77 -7.94,-8.58 -11.94,-16.54 -5.54,-28 6.4,-11.47 13.06,-12.55 23.77,-17.23 5.02,-2.19 5.45,-4.82 4,-10 -0.96,-3.42 -2.23,-6.52 -3,-10 -0.84,-3.8 -0.6,-7.3 0,-11 0.46,-8.49 6.08,-18.93 13.31,-23.69 7.22,-4.77 24.17,-3.19 19.67,-14.29 -4.51,-11.09 -4,-20.3 1.27,-29.77 5.27,-9.48 14.26,-10.46 22.68,-13.32 8.42,-2.87 24.3,-2.08 31.99,0.15 7.7,2.22 20.09,13.14 25.15,3.99 5.07,-9.14 -1.47,-22.53 5.68,-30.32 7.15,-7.79 9.63,-12 16.25,-19.75 4.25,-4.98 9.07,-9.79 14,-14 41.5,-35.46 87.08,-49 142,-49 3.44,0 7.29,0.71 10,1 1.65,0 3.35,-0.11 5,0 12.94,2.27 26.22,3.18 39,6 -35.41,-28.51 -80.7,-45.75 -126,-50 -3.27,-0.31 -6.72,0 -10,0 -9.67,0 -19.33,0 -29,0 -48.21,0 -99.79,20.64 -139,47 m 112,13 c -7.66,-1.49 -16.83,2.55 -17,11 -5.54,-0.73 -12.74,-5.37 -18.08,-1.08 -5.33,4.3 -8.09,7.65 -8.92,14.08 7.49,-0.42 16.84,3.85 21,-5 4.77,6.87 11.79,3.2 16,-2 -3.54,8.22 -10.54,14.78 -16,22 -16.28,-8.92 -33.2,2.48 -43,16 -12.7,-9.7 -23.26,-23.92 -32,-37 4.53,-1.26 9.44,-3.67 12,-8 -5.98,2.26 -25.85,-10.78 -16.32,-13.32 9.53,-2.54 21.73,4.44 30.55,-2.45 8.82,-6.9 19.94,-5.03 28.99,-2.45 9.06,2.57 24.66,5.92 28.78,-3.78 7.25,-1.53 13.59,5.33 14,12 m -77,77 c -4.33,0 -8.67,-0.09 -13,0 -17.36,0.35 -36.73,9.15 -44,26 -4.18,9.69 -4.94,20.35 -3,31 -25.66,5.88 -35.36,36.27 -30,60 -10.89,4.36 -20.26,14.26 -25,25 -1.84,3.95 -2.65,7.9 -4,12 -19.21,-10.68 -43.5,-5.65 -59,9 5.09,-30.3 15.61,-66.31 29.98,-93.02 14.36,-26.72 23.86,-57.36 47.25,-76.75 23.39,-19.39 44.1,-39 58.77,-65.23 16.6,27.04 36.04,53.73 62,74 -5.74,1.31 -13.01,-3.57 -20,-2 M 278,524 c 5.77,26.06 -16.83,46.21 -42,41 -25.88,-5.36 -35.56,-38.75 -16.75,-57.75 18.8,-19 52.9,-9.65 58.75,16.75 z"
         id="path4" />
    </g>
    <g
       fill="None"
       fill-opacity="0"
       stroke="#6b6d69"
       stroke-opacity="1"
       stroke-width="0.3"
       id="g5"
       transform="matrix(-0.42771021,-0.39362579,0.39362579,-0.42771021,448.18368,727.35014)">
      <path
         d="m 603,238 c 2.86,0.41 6.1,0 9,0 -2.71,-0.29 -6.56,-1 -10,-1 0.23,0.05 0.7,0.78 1,1 z"
         id="path5" />
    </g>
    <g
       fill="None"
       fill-opacity="0"
       stroke="#7e7e7c"
       stroke-opacity="1"
       stroke-width="0.3"
       id="g6"
       transform="matrix(-0.42771021,-0.39362579,0.39362579,-0.42771021,448.18368,727.35014)">
      <path
         d="m 340,240 c 2.73,-1.79 4.19,0.37 6.25,2.74 2.07,2.37 4.02,-0.58 5.75,-1.74 -5.75,2.76 -8.46,-4.54 -12,-1 z"
         id="path6-6" />
    </g>
    <g
       fill="None"
       fill-opacity="0"
       stroke="#c4c7c1"
       stroke-opacity="1"
       stroke-width="0.3"
       id="g7"
       transform="matrix(-0.42771021,-0.39362579,0.39362579,-0.42771021,448.18368,727.35014)">
      <path
         d="m 617,238 c -1.65,-0.11 -3.35,0 -5,0 -2.9,0 -6.14,0.41 -9,0 3.72,2.74 10.24,0.07 14,0 z"
         id="path7-2" />
    </g>
    <g
       fill="None"
       fill-opacity="0"
       stroke="#bca015"
       stroke-opacity="1"
       stroke-width="0.3"
       id="g8"
       transform="matrix(-0.42771021,-0.39362579,0.39362579,-0.42771021,448.18368,727.35014)">
      <path
         d="m 464,254 c -0.41,-6.67 -6.75,-13.53 -14,-12 -4.12,9.7 -19.72,6.35 -28.78,3.78 -9.05,-2.58 -20.17,-4.45 -28.99,2.45 -8.82,6.89 -21.02,-0.09 -30.55,2.45 -9.53,2.54 10.34,15.58 16.32,13.32 -2.56,4.33 -7.47,6.74 -12,8 8.74,13.08 19.3,27.3 32,37 9.8,-13.52 26.72,-24.92 43,-16 5.46,-7.22 12.46,-13.78 16,-22 -4.21,5.2 -11.23,8.87 -16,2 -4.16,8.85 -13.51,4.58 -21,5 0.83,-6.43 3.59,-9.78 8.92,-14.08 5.34,-4.29 12.54,0.35 18.08,1.08 0.17,-8.45 9.34,-12.49 17,-11 m -63,5 c 4.08,-2.38 20.2,-7.78 18.07,1.08 -2.13,8.85 -14.68,3.89 -18.07,-1.08 z"
         id="path8-9" />
    </g>
    <g
       fill="None"
       fill-opacity="0"
       stroke="#0d0701"
       stroke-opacity="1"
       stroke-width="0.3"
       id="g9"
       transform="matrix(-0.42771021,-0.39362579,0.39362579,-0.42771021,448.18368,727.35014)">
      <path
         d="m 401,259 c 3.39,4.97 15.94,9.93 18.07,1.08 2.13,-8.86 -13.99,-3.46 -18.07,-1.08 z"
         id="path9-1" />
    </g>
    <g
       fill="None"
       fill-opacity="0"
       stroke="#c1a30f"
       stroke-opacity="1"
       stroke-width="0.3"
       id="g10"
       transform="matrix(-0.42771021,-0.39362579,0.39362579,-0.42771021,448.18368,727.35014)">
      <path
         d="m 272,473 c 0.07,-5.28 -4.03,-13.66 -0.23,-19.23 3.8,-5.57 5.69,-9.24 12.23,-11.77 -1.79,-9.8 -9.95,-27.32 -3.07,-37.07 6.87,-9.75 12.05,-16.4 24.76,-19.24 12.72,-2.83 6.22,-24.18 9.24,-34.76 3.02,-10.59 10.47,-18.48 18.32,-25.68 7.85,-7.21 17.27,-15.16 26.75,-15.25 -5.53,2.8 -11.16,6.65 -15.75,11.25 -4.59,4.6 -9.14,11.08 -11.22,16.78 -2.09,5.69 -8.33,16.52 -3.03,18.97 7.27,-16.85 26.64,-25.65 44,-26 4.16,-0.5 8.93,-0.39 13,0 6.99,-1.57 14.26,3.31 20,2 -25.96,-20.27 -45.4,-46.96 -62,-74 -14.67,26.23 -35.38,45.84 -58.77,65.23 -23.39,19.39 -32.89,50.03 -47.25,76.75 -14.37,26.71 -24.89,62.72 -29.98,93.02 15.5,-14.65 39.79,-19.68 59,-9 1.35,-4.1 2.16,-8.05 4,-12 z"
         id="path10-2" />
    </g>
    <g
       fill="None"
       fill-opacity="0"
       stroke="#797a78"
       stroke-opacity="1"
       stroke-width="0.3"
       id="g11"
       transform="matrix(-0.42771021,-0.39362579,0.39362579,-0.42771021,448.18368,727.35014)">
      <path
         d="m 446,300 c 4.54,-4.54 9.41,-9.41 14,-14 -4.93,4.21 -9.75,9.02 -14,14 z"
         id="path11-7" />
    </g>
    <g
       fill="None"
       fill-opacity="0"
       stroke="#917e0c"
       stroke-opacity="1"
       stroke-width="0.3"
       id="g12"
       transform="matrix(-0.42771021,-0.39362579,0.39362579,-0.42771021,448.18368,727.35014)">
      <path
         d="m 272,473 c 4.74,-10.74 14.11,-20.64 25,-25 -5.36,-23.73 4.34,-54.12 30,-60 -1.94,-10.65 -1.18,-21.31 3,-31 -5.3,-2.45 0.94,-13.28 3.03,-18.97 2.08,-5.7 6.63,-12.18 11.22,-16.78 4.59,-4.6 10.22,-8.45 15.75,-11.25 -9.48,0.09 -18.9,8.04 -26.75,15.25 -7.85,7.2 -15.3,15.09 -18.32,25.68 -3.02,10.58 3.48,31.93 -9.24,34.76 -12.71,2.84 -17.89,9.49 -24.76,19.24 -6.88,9.75 1.28,27.27 3.07,37.07 -6.54,2.53 -8.43,6.2 -12.23,11.77 -3.8,5.57 0.3,13.95 0.23,19.23 z"
         id="path12-3" />
    </g>
    <g
       fill="None"
       fill-opacity="0"
       stroke="#514503"
       stroke-opacity="1"
       stroke-width="0.3"
       id="g13"
       transform="matrix(-0.42771021,-0.39362579,0.39362579,-0.42771021,448.18368,727.35014)">
      <path
         d="m 374,331 c 4.33,-0.09 8.67,0 13,0 -4.07,-0.39 -8.84,-0.5 -13,0 z"
         id="path13-6" />
    </g>
    <g
       fill="None"
       fill-opacity="0"
       stroke="#8b8b8b"
       stroke-opacity="1"
       stroke-width="0.3"
       id="g14"
       transform="matrix(-0.42771021,-0.39362579,0.39362579,-0.42771021,448.18368,727.35014)">
      <path
         d="m 310,438 c -0.36,-3.51 -0.19,-7.48 0,-11 -0.6,3.7 -0.84,7.2 0,11 z"
         id="path14" />
    </g>
    <g
       fill="None"
       fill-opacity="0"
       stroke="#bdbdbd"
       stroke-opacity="1"
       stroke-width="0.3"
       id="g15"
       transform="matrix(-0.42771021,-0.39362579,0.39362579,-0.42771021,448.18368,727.35014)">
      <path
         d="m 309,458 c 5.26,-1.46 6.61,-3.88 4,-10 1.45,5.18 1.02,7.81 -4,10 z"
         id="path15" />
    </g>
    <g
       fill="None"
       fill-opacity="0"
       stroke="#c1c5bd"
       stroke-opacity="1"
       stroke-width="0.3"
       id="g16"
       transform="matrix(-0.42771021,-0.39362579,0.39362579,-0.42771021,448.18368,727.35014)">
      <path
         d="m 236,565 c -7.81,-3.75 -17.26,-12.89 -19.33,-23.67 -2.07,-10.78 -1.25,-22.33 6.58,-31.08 7.83,-8.76 23.22,-12.98 33.43,-8.93 10.21,4.05 18.07,15.52 21.32,22.68 -5.85,-26.4 -39.95,-35.75 -58.75,-16.75 -18.81,19 -9.13,52.39 16.75,57.75 z"
         id="path16" />
    </g>
    <g
       fill="None"
       fill-opacity="0"
       stroke="#fbfbfb"
       stroke-opacity="1"
       stroke-width="0.3"
       id="g17"
       transform="matrix(-0.42771021,-0.39362579,0.39362579,-0.42771021,448.18368,727.35014)">
      <path
         d="m 236,565 c 25.17,5.21 47.77,-14.94 42,-41 -3.25,-7.16 -11.11,-18.63 -21.32,-22.68 -10.21,-4.05 -25.6,0.17 -33.43,8.93 -7.83,8.75 -8.65,20.3 -6.58,31.08 2.07,10.78 11.52,19.92 19.33,23.67 z"
         id="path17" />
    </g>
    <g
       fill="None"
       fill-opacity="0"
       stroke="#31312f"
       stroke-opacity="1"
       stroke-width="0.3"
       id="g18"
       transform="matrix(-0.42771021,-0.39362579,0.39362579,-0.42771021,448.18368,727.35014)">
      <path
         d="m 190,523 c 0,5 0,10 0,15 0,0.5 -0.07,1.51 0,2 -0.06,-3.73 3.56,-14.57 0,-18 0,0 0,0.5 0,1 z"
         id="path18" />
    </g>
    <g
       fill="None"
       fill-opacity="0"
       stroke="#a2a2a0"
       stroke-opacity="1"
       stroke-width="0.3"
       id="g19"
       transform="matrix(-0.42771021,-0.39362579,0.39362579,-0.42771021,448.18368,727.35014)">
      <path
         d="m 190,538 c 0,-5 0,-10 0,-15 -2.27,3.06 -1.38,11.75 0,15 z"
         id="path19" />
    </g>
    <g
       fill="None"
       fill-opacity="0"
       stroke="#6c6c6a"
       stroke-opacity="1"
       stroke-width="0.3"
       id="g20"
       transform="matrix(-0.42771021,-0.39362579,0.39362579,-0.42771021,448.18368,727.35014)">
      <path
         d="m 274,577 c 4.54,-2.61 8.79,-6.68 12,-11 -3.22,3.7 -8.21,8.04 -12,11 z"
         id="path20" />
    </g>
    <g
       fill="#5d5d5d"
       fill-opacity="1"
       stroke="None"
       id="g22"
       transform="matrix(-0.42771021,-0.39362579,0.39362579,-0.42771021,448.18368,727.35014)">
      <path
         d="m 491,194 c 9.67,0 19.33,0 29,0 -0.04,0 0,-1 0,-1 -9.67,0 -20.03,0.13 -29,1 z"
         id="path22" />
    </g>
    <g
       fill="#a3a3a2"
       fill-opacity="1"
       stroke="None"
       id="g23"
       transform="matrix(-0.42771021,-0.39362579,0.39362579,-0.42771021,448.18368,727.35014)">
      <path
         d="m 520,194 c 3.28,0 6.73,-0.31 10,0 -2.91,-0.61 -6.4,-1 -10,-1 0,0 -0.04,1 0,1 z"
         id="path23" />
    </g>
    <g
       fill="#030202"
       fill-opacity="1"
       stroke="None"
       id="g24"
       transform="matrix(-0.42771021,-0.39362579,0.39362579,-0.42771021,448.18368,727.35014)">
      <path
         d="m 352,241 c -1.73,1.16 -3.68,4.11 -5.75,1.74 -2.06,-2.37 -3.52,-4.53 -6.25,-2.74 -7.03,7.03 -9.12,20.4 -16.23,27.77 -7.11,7.37 -11.17,17.05 -19.02,23.98 -7.85,6.93 -13.5,15.3 -22.67,20.33 -9.17,5.03 -14.89,13.49 -20.78,22.22 -5.88,8.73 -9.96,18.52 -14.99,28.01 -5.04,9.48 -9.41,19.8 -14.54,29.46 -5.13,9.66 -9.06,19.69 -13,30 -3.94,10.31 -9.7,19.84 -11.99,31.01 -2.29,11.17 -8.3,22.36 -8.78,34.22 -0.48,11.86 -5.89,23.72 -8,35 3.56,3.43 -0.06,14.27 0,18 3.92,18.97 18.11,33.94 22,53 20.1,-8.18 42.74,-4.92 62,-16 3.79,-2.96 8.78,-7.3 12,-11 6.24,-8.39 12.42,-18.2 13,-29 0.58,-10.8 -0.29,-25.19 -8.23,-33.77 -7.94,-8.58 -11.94,-16.54 -5.54,-28 6.4,-11.47 13.06,-12.55 23.77,-17.23 5.02,-2.19 5.45,-4.82 4,-10 -0.96,-3.42 -2.23,-6.52 -3,-10 -0.84,-3.8 -0.6,-7.3 0,-11 0.46,-8.49 6.08,-18.93 13.31,-23.69 7.22,-4.77 24.17,-3.19 19.67,-14.29 -4.51,-11.09 -4,-20.3 1.27,-29.77 5.27,-9.48 14.26,-10.46 22.68,-13.32 8.42,-2.87 24.3,-2.08 31.99,0.15 7.7,2.22 20.09,13.14 25.15,3.99 5.07,-9.14 -1.47,-22.53 5.68,-30.32 7.15,-7.79 9.63,-12 16.25,-19.75 4.25,-4.98 9.07,-9.79 14,-14 41.5,-35.46 87.08,-49 142,-49 3.44,0 7.29,0.71 10,1 1.65,0 3.35,-0.11 5,0 12.94,2.27 26.22,3.18 39,6 -35.41,-28.51 -80.7,-45.75 -126,-50 -3.27,-0.31 -6.72,0 -10,0 -9.67,0 -19.33,0 -29,0 -48.21,0 -99.79,20.64 -139,47 m 112,13 c -7.66,-1.49 -16.83,2.55 -17,11 -5.54,-0.73 -12.74,-5.37 -18.08,-1.08 -5.33,4.3 -8.09,7.65 -8.92,14.08 7.49,-0.42 16.84,3.85 21,-5 4.77,6.87 11.79,3.2 16,-2 -3.54,8.22 -10.54,14.78 -16,22 -16.28,-8.92 -33.2,2.48 -43,16 -12.7,-9.7 -23.26,-23.92 -32,-37 4.53,-1.26 9.44,-3.67 12,-8 -5.98,2.26 -25.85,-10.78 -16.32,-13.32 9.53,-2.54 21.73,4.44 30.55,-2.45 8.82,-6.9 19.94,-5.03 28.99,-2.45 9.06,2.57 24.66,5.92 28.78,-3.78 7.25,-1.53 13.59,5.33 14,12 m -77,77 c -4.33,0 -8.67,-0.09 -13,0 -17.36,0.35 -36.73,9.15 -44,26 -4.18,9.69 -4.94,20.35 -3,31 -25.66,5.88 -35.36,36.27 -30,60 -10.89,4.36 -20.26,14.26 -25,25 -1.84,3.95 -2.65,7.9 -4,12 -19.21,-10.68 -43.5,-5.65 -59,9 5.09,-30.3 15.61,-66.31 29.98,-93.02 14.36,-26.72 23.86,-57.36 47.25,-76.75 23.39,-19.39 44.1,-39 58.77,-65.23 16.6,27.04 36.04,53.73 62,74 -5.74,1.31 -13.01,-3.57 -20,-2 M 278,524 c 5.77,26.06 -16.83,46.21 -42,41 -25.88,-5.36 -35.56,-38.75 -16.75,-57.75 18.8,-19 52.9,-9.65 58.75,16.75 z"
         id="path24" />
    </g>
    <g
       fill="#6b6d69"
       fill-opacity="1"
       stroke="None"
       id="g25"
       transform="matrix(-0.42771021,-0.39362579,0.39362579,-0.42771021,448.18368,727.35014)">
      <path
         d="m 603,238 c 2.86,0.41 6.1,0 9,0 -2.71,-0.29 -6.56,-1 -10,-1 0.23,0.05 0.7,0.78 1,1 z"
         id="path25" />
    </g>
    <g
       fill="#7e7e7c"
       fill-opacity="1"
       stroke="None"
       id="g26"
       transform="matrix(-0.42771021,-0.39362579,0.39362579,-0.42771021,448.18368,727.35014)">
      <path
         d="m 340,240 c 2.73,-1.79 4.19,0.37 6.25,2.74 2.07,2.37 4.02,-0.58 5.75,-1.74 -5.75,2.76 -8.46,-4.54 -12,-1 z"
         id="path26" />
    </g>
    <g
       fill="#c4c7c1"
       fill-opacity="1"
       stroke="None"
       id="g27"
       transform="matrix(-0.42771021,-0.39362579,0.39362579,-0.42771021,448.18368,727.35014)">
      <path
         d="m 617,238 c -1.65,-0.11 -3.35,0 -5,0 -2.9,0 -6.14,0.41 -9,0 3.72,2.74 10.24,0.07 14,0 z"
         id="path27" />
    </g>
    <g
       fill="#bca015"
       fill-opacity="1"
       stroke="None"
       id="g28"
       transform="matrix(-0.42771021,-0.39362579,0.39362579,-0.42771021,448.18368,727.35014)">
      <path
         d="m 464,254 c -0.41,-6.67 -6.75,-13.53 -14,-12 -4.12,9.7 -19.72,6.35 -28.78,3.78 -9.05,-2.58 -20.17,-4.45 -28.99,2.45 -8.82,6.89 -21.02,-0.09 -30.55,2.45 -9.53,2.54 10.34,15.58 16.32,13.32 -2.56,4.33 -7.47,6.74 -12,8 8.74,13.08 19.3,27.3 32,37 9.8,-13.52 26.72,-24.92 43,-16 5.46,-7.22 12.46,-13.78 16,-22 -4.21,5.2 -11.23,8.87 -16,2 -4.16,8.85 -13.51,4.58 -21,5 0.83,-6.43 3.59,-9.78 8.92,-14.08 5.34,-4.29 12.54,0.35 18.08,1.08 0.17,-8.45 9.34,-12.49 17,-11 m -63,5 c 4.08,-2.38 20.2,-7.78 18.07,1.08 -2.13,8.85 -14.68,3.89 -18.07,-1.08 z"
         id="path28" />
    </g>
    <g
       fill="#0d0701"
       fill-opacity="1"
       stroke="None"
       id="g29"
       transform="matrix(-0.42771021,-0.39362579,0.39362579,-0.42771021,448.18368,727.35014)">
      <path
         d="m 401,259 c 3.39,4.97 15.94,9.93 18.07,1.08 2.13,-8.86 -13.99,-3.46 -18.07,-1.08 z"
         id="path29" />
    </g>
    <g
       fill="#c1a30f"
       fill-opacity="1"
       stroke="None"
       id="g30"
       transform="matrix(-0.42771021,-0.39362579,0.39362579,-0.42771021,448.18368,727.35014)">
      <path
         d="m 272,473 c 0.07,-5.28 -4.03,-13.66 -0.23,-19.23 3.8,-5.57 5.69,-9.24 12.23,-11.77 -1.79,-9.8 -9.95,-27.32 -3.07,-37.07 6.87,-9.75 12.05,-16.4 24.76,-19.24 12.72,-2.83 6.22,-24.18 9.24,-34.76 3.02,-10.59 10.47,-18.48 18.32,-25.68 7.85,-7.21 17.27,-15.16 26.75,-15.25 -5.53,2.8 -11.16,6.65 -15.75,11.25 -4.59,4.6 -9.14,11.08 -11.22,16.78 -2.09,5.69 -8.33,16.52 -3.03,18.97 7.27,-16.85 26.64,-25.65 44,-26 4.16,-0.5 8.93,-0.39 13,0 6.99,-1.57 14.26,3.31 20,2 -25.96,-20.27 -45.4,-46.96 -62,-74 -14.67,26.23 -35.38,45.84 -58.77,65.23 -23.39,19.39 -32.89,50.03 -47.25,76.75 -14.37,26.71 -24.89,62.72 -29.98,93.02 15.5,-14.65 39.79,-19.68 59,-9 1.35,-4.1 2.16,-8.05 4,-12 z"
         id="path30" />
    </g>
    <g
       fill="#797a78"
       fill-opacity="1"
       stroke="None"
       id="g31"
       transform="matrix(-0.42771021,-0.39362579,0.39362579,-0.42771021,448.18368,727.35014)">
      <path
         d="m 446,300 c 4.54,-4.54 9.41,-9.41 14,-14 -4.93,4.21 -9.75,9.02 -14,14 z"
         id="path31" />
    </g>
    <g
       fill="#917e0c"
       fill-opacity="1"
       stroke="None"
       id="g32"
       transform="matrix(-0.42771021,-0.39362579,0.39362579,-0.42771021,448.18368,727.35014)">
      <path
         d="m 272,473 c 4.74,-10.74 14.11,-20.64 25,-25 -5.36,-23.73 4.34,-54.12 30,-60 -1.94,-10.65 -1.18,-21.31 3,-31 -5.3,-2.45 0.94,-13.28 3.03,-18.97 2.08,-5.7 6.63,-12.18 11.22,-16.78 4.59,-4.6 10.22,-8.45 15.75,-11.25 -9.48,0.09 -18.9,8.04 -26.75,15.25 -7.85,7.2 -15.3,15.09 -18.32,25.68 -3.02,10.58 3.48,31.93 -9.24,34.76 -12.71,2.84 -17.89,9.49 -24.76,19.24 -6.88,9.75 1.28,27.27 3.07,37.07 -6.54,2.53 -8.43,6.2 -12.23,11.77 -3.8,5.57 0.3,13.95 0.23,19.23 z"
         id="path32" />
    </g>
    <g
       fill="#514503"
       fill-opacity="1"
       stroke="None"
       id="g33"
       transform="matrix(-0.42771021,-0.39362579,0.39362579,-0.42771021,448.18368,727.35014)">
      <path
         d="m 374,331 c 4.33,-0.09 8.67,0 13,0 -4.07,-0.39 -8.84,-0.5 -13,0 z"
         id="path33" />
    </g>
    <g
       fill="#8b8b8b"
       fill-opacity="1"
       stroke="None"
       id="g34"
       transform="matrix(-0.42771021,-0.39362579,0.39362579,-0.42771021,448.18368,727.35014)">
      <path
         d="m 310,438 c -0.36,-3.51 -0.19,-7.48 0,-11 -0.6,3.7 -0.84,7.2 0,11 z"
         id="path34" />
    </g>
    <g
       fill="#bdbdbd"
       fill-opacity="1"
       stroke="None"
       id="g35"
       transform="matrix(-0.42771021,-0.39362579,0.39362579,-0.42771021,448.18368,727.35014)">
      <path
         d="m 309,458 c 5.26,-1.46 6.61,-3.88 4,-10 1.45,5.18 1.02,7.81 -4,10 z"
         id="path35" />
    </g>
    <g
       fill="#c1c5bd"
       fill-opacity="1"
       stroke="None"
       id="g36"
       transform="matrix(-0.42771021,-0.39362579,0.39362579,-0.42771021,448.18368,727.35014)">
      <path
         d="m 236,565 c -7.81,-3.75 -17.26,-12.89 -19.33,-23.67 -2.07,-10.78 -1.25,-22.33 6.58,-31.08 7.83,-8.76 23.22,-12.98 33.43,-8.93 10.21,4.05 18.07,15.52 21.32,22.68 -5.85,-26.4 -39.95,-35.75 -58.75,-16.75 -18.81,19 -9.13,52.39 16.75,57.75 z"
         id="path36" />
    </g>
    <g
       fill="#fbfbfb"
       fill-opacity="1"
       stroke="None"
       id="g37"
       transform="matrix(-0.42771021,-0.39362579,0.39362579,-0.42771021,448.18368,727.35014)" />
    <g
       fill="#31312f"
       fill-opacity="1"
       stroke="None"
       id="g38"
       transform="matrix(-0.42771021,-0.39362579,0.39362579,-0.42771021,448.18368,727.35014)">
      <path
         d="m 190,523 c 0,5 0,10 0,15 0,0.5 -0.07,1.51 0,2 -0.06,-3.73 3.56,-14.57 0,-18 0,0 0,0.5 0,1 z"
         id="path38" />
    </g>
    <g
       fill="#a2a2a0"
       fill-opacity="1"
       stroke="None"
       id="g39"
       transform="matrix(-0.42771021,-0.39362579,0.39362579,-0.42771021,448.18368,727.35014)">
      <path
         d="m 190,538 c 0,-5 0,-10 0,-15 -2.27,3.06 -1.38,11.75 0,15 z"
         id="path39" />
    </g>
    <g
       fill="#6c6c6a"
       fill-opacity="1"
       stroke="None"
       id="g40"
       transform="matrix(-0.42771021,-0.39362579,0.39362579,-0.42771021,448.18368,727.35014)">
      <path
         d="m 274,577 c 4.54,-2.61 8.79,-6.68 12,-11 -3.22,3.7 -8.21,8.04 -12,11 z"
         id="path40" />
    </g>
  </g>
</svg>
