<?xml version="1.0" encoding="UTF-8"?>
<svg version="1.1" xmlns="http://www.w3.org/2000/svg" width="400" height="400">
<path d="M0 0 C0.92409668 -0.01385742 1.84819336 -0.02771484 2.80029297 -0.04199219 C7.53499547 -0.00771543 10.93257284 0.16479148 14.6875 3.375 C17.3531167 7.81299324 17.0300778 11.95172539 17 17 C16.99508545 18.00071533 16.9901709 19.00143066 16.98510742 20.0324707 C16.01404461 86.21911572 1.74775923 156.5095572 -26.3125 216.375 C-26.74143555 217.2932959 -27.17037109 218.2115918 -27.61230469 219.15771484 C-36.77190646 238.56670052 -47.45018831 256.94184206 -61.3125 273.375 C-61.81168945 273.97425293 -62.31087891 274.57350586 -62.82519531 275.19091797 C-87.10121495 304.29931142 -118.67707418 325.6685426 -157.2109375 330.12890625 C-187.45939117 332.28951008 -215.63763076 328.19682128 -242.3125 313.375 C-243.40304688 312.78589844 -244.49359375 312.19679688 -245.6171875 311.58984375 C-252.39958686 307.80170976 -258.40225024 303.40917292 -264.3125 298.375 C-270.52924889 303.46495969 -276.15381818 309.09895016 -281.80686378 314.79419899 C-283.54881576 316.54903231 -285.29397596 318.30061905 -287.03996277 320.05143738 C-290.73780954 323.76064133 -294.43167861 327.47379075 -298.125 331.1875 C-302.42407365 335.51018273 -306.72476655 339.83122875 -311.02966881 344.14810753 C-312.75008824 345.87501492 -314.46747422 347.60490097 -316.18476868 349.33491516 C-317.23346492 350.38724179 -318.28230061 351.43942948 -319.33129883 352.49145508 C-320.24728348 353.41267654 -321.16326813 354.33389801 -322.10700989 355.28303528 C-325.45469277 358.45839955 -327.6641557 358.66072914 -332.27734375 358.59375 C-335.25024757 358.27420564 -337.02248159 357.26089752 -339.3125 355.375 C-341.57448164 352.46673789 -341.92650869 349.1335993 -341.80189514 345.48388672 C-339.85402912 337.09020147 -328.09925394 329.03566294 -322.03515625 323 C-320.85666817 321.82338076 -319.67840347 320.64653775 -318.50035095 319.46948242 C-315.42347192 316.39639193 -312.3436001 313.32631845 -309.26306152 310.25689697 C-306.11038427 307.11451326 -302.96059331 303.96923929 -299.81054688 300.82421875 C-293.64732746 294.67167193 -287.48093835 288.52231438 -281.3125 282.375 C-282.27353039 280.92668609 -283.23545256 279.4789639 -284.19775391 278.03149414 C-284.73332916 277.22523087 -285.26890442 276.41896759 -285.82070923 275.58827209 C-287.37820445 273.27751862 -289.01910113 271.04408936 -290.6875 268.8125 C-311.04828645 239.73208314 -317.87505567 201.1239313 -311.92919922 166.45239258 C-303.08470759 122.12021312 -275.03547982 89.84867331 -238.43457031 65.10546875 C-233.81069168 62.05356352 -229.08699021 59.18419613 -224.3125 56.375 C-223.52584961 55.90980957 -222.73919922 55.44461914 -221.92871094 54.96533203 C-157.46044373 17.26436999 -74.03865507 0.64998982 0 0 Z " fill="#F753F6" transform="translate(362.3125,20.625)"/>
<path d="M0 0 C1.25497957 3.7649387 1.52064444 6.03008618 1 10 C-3.79136212 17.07250888 -10.84083112 22.95937038 -16.89532089 28.97048569 C-18.71325432 30.77551608 -20.52792272 32.5837744 -22.34182739 34.39285278 C-26.18339468 38.22307567 -30.02891727 42.04931199 -33.875 45.875 C-38.35504389 50.33142889 -42.8334445 54.78948427 -47.30768204 59.25174332 C-49.09663637 61.03421089 -50.88857026 62.81364599 -52.68063354 64.59298706 C-53.77014573 65.6788691 -54.8595191 66.76489044 -55.94873047 67.85107422 C-56.4484285 68.34560593 -56.94812653 68.84013763 -57.46296692 69.34965515 C-60.06041202 71.92636239 -60.06041202 71.92636239 -62 75 C-61.4386202 74.99539104 -60.87724041 74.99078207 -60.29884911 74.98603344 C-46.62739564 74.87552142 -32.95602063 74.79314713 -19.28421593 74.74093914 C-12.67254368 74.71484287 -6.06119376 74.67944288 0.55029297 74.62280273 C6.93046615 74.56848613 13.31032925 74.53857969 19.69071579 74.52561378 C22.12521624 74.51637344 24.55969966 74.49832925 26.99406815 74.47134972 C30.40348263 74.43506588 33.81161499 74.43005463 37.22119141 74.43237305 C38.73170578 74.40540848 38.73170578 74.40540848 40.2727356 74.37789917 C44.78378799 74.41110301 48.02810211 74.51579552 51.67367554 77.34797668 C54 80 54 80 54 83 C54.66 83 55.32 83 56 83 C45.86387415 134.54327828 10.7407783 193.53484692 -32.84228516 223.25634766 C-62.81339542 242.88323451 -100.1581945 251.08856543 -135.56103516 244.47851562 C-150.66333133 241.31229883 -164.51701882 236.49178321 -178 229 C-179.09054688 228.41089844 -180.18109375 227.82179688 -181.3046875 227.21484375 C-188.08708686 223.42670976 -194.08975024 219.03417292 -200 214 C-206.21674889 219.08995969 -211.84131818 224.72395016 -217.49436378 230.41919899 C-219.23631576 232.17403231 -220.98147596 233.92561905 -222.72746277 235.67643738 C-226.42530954 239.38564133 -230.11917861 243.09879075 -233.8125 246.8125 C-238.11157365 251.13518273 -242.41226655 255.45622875 -246.71716881 259.77310753 C-248.43758824 261.50001492 -250.15497422 263.22990097 -251.87226868 264.95991516 C-252.92096492 266.01224179 -253.96980061 267.06442948 -255.01879883 268.11645508 C-255.93478348 269.03767654 -256.85076813 269.95889801 -257.79450989 270.90803528 C-261.14399512 274.08510912 -263.34606037 274.26797042 -267.95703125 274.234375 C-270.81841526 273.90610915 -272.72412174 272.70690869 -275 271 C-274.35448685 270.35481415 -273.70897369 269.7096283 -273.04389954 269.04489136 C-269.12567544 265.1266298 -265.21205665 261.20377026 -261.29760742 257.28173828 C-252.46734471 248.43509118 -243.63451968 239.5910073 -234.80021191 230.74839973 C-229.459114 225.40214715 -224.11896193 220.0549561 -218.78100586 214.70556641 C-214.11000288 210.02456392 -209.43721595 205.34535072 -204.76232225 200.66823375 C-202.2938019 198.19841677 -199.82615084 195.72774588 -197.3606472 193.25491714 C-194.60671502 190.49286737 -191.84880151 187.73481367 -189.09057617 184.97705078 C-188.28562714 184.16850647 -187.4806781 183.35996216 -186.65133667 182.5269165 C-185.89029129 181.76724579 -185.12924591 181.00757507 -184.34513855 180.22488403 C-183.69531604 179.57413973 -183.04549353 178.92339542 -182.37597942 178.25293159 C-180.35465769 176.33629059 -178.29498486 174.51024654 -176.18828773 172.68954945 C-172.17279387 169.1954922 -168.390165 165.51963106 -164.64225769 161.74232483 C-163.94741864 161.04622351 -163.25257959 160.35012218 -162.53668481 159.63292688 C-160.23063846 157.32154279 -157.92820641 155.00659265 -155.62573242 152.69165039 C-153.96465584 151.0253758 -152.30333343 149.35934623 -150.64178467 147.69354248 C-147.07576864 144.11761637 -143.51122288 140.54023341 -139.94774437 136.96177864 C-134.31686072 131.30778422 -128.68106347 125.65870164 -123.04426575 120.01060486 C-121.11299442 118.07533332 -119.1817574 116.14002754 -117.2505312 114.20471096 C-116.52686467 113.4795156 -116.52686467 113.4795156 -115.78857863 112.73966982 C-110.31039876 107.24977238 -104.83330564 101.75879129 -99.35668945 96.26733398 C-98.60653502 95.51515091 -98.60653502 95.51515091 -97.84122596 94.74777221 C-89.71570528 86.60001393 -81.59401561 78.44844499 -73.47326037 70.29593749 C-65.12879539 61.91912525 -56.7786094 53.54804475 -48.42347223 45.18187708 C-42.81337206 39.56390096 -37.21015836 33.93914929 -31.61153543 28.30973542 C-28.13739516 24.81964881 -24.65703691 21.33581671 -21.17481995 17.85379028 C-19.55603553 16.23257367 -17.93984705 14.60876043 -16.32639503 12.98223686 C-14.13201923 10.77081974 -11.92871275 8.56871375 -9.7228241 6.36878967 C-9.07944932 5.71599425 -8.43607454 5.06319883 -7.77320355 4.39062172 C-3.34233704 0 -3.34233704 0 0 0 Z " fill="#D147CF" transform="translate(298,105)"/>
<path d="M0 0 C1.48790039 -0.0309375 1.48790039 -0.0309375 3.00585938 -0.0625 C12.17437468 -0.11182624 12.17437468 -0.11182624 15.9375 3.25 C18.59564729 7.69633407 18.28011167 11.82103947 18.25 16.875 C18.24262817 18.376073 18.24262817 18.376073 18.23510742 19.9074707 C17.51724507 68.83623228 9.43198731 120.76653808 -6.0625 167.25 C-7.0525 167.25 -8.0425 167.25 -9.0625 167.25 C-10.10039581 165.60666496 -11.09817924 163.93756133 -12.0625 162.25 C-15.22144528 160.14403648 -15.98878785 159.99622836 -19.59928894 159.9715271 C-20.52896988 159.96036362 -21.45865082 159.94920013 -22.41650391 159.93769836 C-23.43429932 159.93553818 -24.45209473 159.93337799 -25.50073242 159.93115234 C-27.11072868 159.91608391 -27.11072868 159.91608391 -28.75325012 159.90071106 C-32.30815078 159.86977033 -35.86297576 159.85281355 -39.41796875 159.8359375 C-41.87991492 159.81723463 -44.34185462 159.79766189 -46.80378723 159.7772522 C-53.28925775 159.72583203 -59.77474907 159.68625919 -66.26031494 159.64910889 C-72.87607003 159.60913117 -79.49173784 159.55801044 -86.10742188 159.5078125 C-99.09238559 159.41093617 -112.07739929 159.32619064 -125.0625 159.25 C-123.20717749 155.23212671 -120.55916961 152.48507638 -117.43530273 149.41162109 C-116.86115631 148.83878891 -116.28700989 148.26595673 -115.69546509 147.67576599 C-113.80023223 145.7870144 -111.89812889 143.9053366 -109.99609375 142.0234375 C-108.67804592 140.71166069 -107.36051234 139.399367 -106.04347229 138.08657837 C-102.57763666 134.63404 -99.10627673 131.18711434 -95.63330078 127.74176025 C-90.06939738 122.22099653 -84.51222266 116.69347962 -78.9582386 111.1627388 C-77.01451204 109.2292587 -75.06742123 107.29921384 -73.11997986 105.36947632 C-71.93330678 104.18962885 -70.74674179 103.00967264 -69.56030273 101.82958984 C-69.01534653 101.291371 -68.47039032 100.75315216 -67.90892029 100.19862366 C-63.92655043 96.26829433 -63.92655043 96.26829433 -62.8125 90.9375 C-63.07653787 87.04294146 -63.65888247 85.27677763 -66.0625 82.25 C-69.8274387 80.99502043 -72.09258618 80.72935556 -76.0625 81.25 C-83.18649836 86.06392873 -89.20107107 93.27069747 -95.24874687 99.36108208 C-97.09131274 101.2165417 -98.93709891 103.06874472 -100.78370667 104.92018127 C-104.69197705 108.83979814 -108.59625843 112.76337335 -112.5 116.6875 C-117.04983652 121.2609331 -121.60129091 125.83273207 -126.15693855 130.40037727 C-127.97877789 132.22871611 -129.79759241 134.06002849 -131.61631775 135.89146423 C-132.72249966 137.00127511 -133.8288202 138.11094783 -134.93530273 139.22045898 C-135.44278046 139.73310303 -135.95025818 140.24574707 -136.47311401 140.77392578 C-137.6507521 141.95174395 -138.85389606 143.10397923 -140.0625 144.25 C-140.3925 144.25 -140.7225 144.25 -141.0625 144.25 C-141.06304477 143.68254468 -141.06358953 143.11508936 -141.06415081 142.53043842 C-141.07912401 128.71720786 -141.12190859 114.90430394 -141.19459057 101.09125233 C-141.22889895 94.41127337 -141.25397658 87.73158481 -141.25805664 81.05151367 C-141.26233122 74.6063121 -141.29072526 68.16162891 -141.33593178 61.71658897 C-141.3489335 59.25622259 -141.35320507 56.79579425 -141.34865379 54.33539772 C-141.34376716 50.8920539 -141.36975716 47.45023645 -141.40307617 44.00708008 C-141.39445053 42.98712448 -141.38582489 41.96716888 -141.37693787 40.91630554 C-141.45393995 36.17732974 -141.50532753 33.97581155 -144.46382141 30.12187195 C-147.01703179 28.28275152 -148.2857313 27.59458146 -151.375 27.4375 C-152.591875 27.375625 -153.80875 27.31375 -155.0625 27.25 C-152.10670252 25.27946834 -149.94028319 24.49241711 -146.55859375 23.515625 C-145.4396875 23.19190918 -144.32078125 22.86819336 -143.16796875 22.53466797 C-96.94151221 9.49501656 -48.20477099 0.259689 0 0 Z " fill="#FC7DFB" transform="translate(361.0625,20.75)"/>
<path d="M0 0 C0.99 0.495 0.99 0.495 2 1 C1.34 1.99 0.68 2.98 0 4 C-0.17432145 7.00591552 -0.17432145 7.00591552 0.05125427 10.4848938 C0.0800346 11.14708825 0.10881492 11.8092827 0.13846737 12.49154365 C0.20243354 13.94522503 0.27105137 15.39870718 0.34366798 16.85198212 C0.54480819 20.90105775 0.70906618 24.95169396 0.87779236 29.00222778 C0.91469929 29.86839415 0.95160621 30.73456051 0.98963153 31.62697434 C1.49704732 43.81396495 1.7313669 56.00887631 1.98338223 68.20334053 C2.19547742 78.09075626 2.49715352 87.95990127 3.01391602 97.83642578 C3.59939108 109.26828996 3.94638744 120.68514684 3.93359375 132.1328125 C3.93271995 133.05861775 3.93184615 133.98442301 3.93094587 134.93828297 C3.7708621 160.62714742 -0.36957081 178.90373054 -18.77268982 197.52389526 C-28.43651696 206.9262373 -38.91234782 215.34161455 -50 223 C-72.48488389 200.7589365 -83.87379344 167.94689318 -84.2421875 136.66333008 C-84.33554787 95.12672008 -69.92235234 60.56135907 -41 30.75 C-29.33303304 19.46014712 -14.61145124 7.37451776 0 0 Z " fill="#FA7DF7" transform="translate(133,80)"/>
<path d="M0 0 C-4.14278943 22.14602251 -34.53977462 48.53228661 -52 61 C-82.19911889 81.59431034 -120.46991784 90.21707329 -156.56103516 83.47851562 C-171.66333133 80.31229883 -185.51701882 75.49178321 -199 68 C-200.09054688 67.41089844 -201.18109375 66.82179688 -202.3046875 66.21484375 C-209.08708686 62.42670976 -215.08975024 58.03417292 -221 53 C-217.99281695 36.44943729 -194.69427449 16.12327723 -181.37310791 6.71862793 C-157.90617264 -8.76739518 -121.09628771 -3.09503113 -94.45825398 -1.77409482 C-84.60318263 -1.29473815 -74.74751838 -1.09111811 -64.88320482 -0.9067409 C-52.84794816 -0.6799453 -40.81601605 -0.41581973 -28.7877655 0.06021118 C-27.52785764 0.1100502 -27.52785764 0.1100502 -26.24249709 0.16089606 C-22.31172547 0.31904635 -18.38157042 0.48653594 -14.45170593 0.66578674 C-13.75355469 0.69569682 -13.05540345 0.72560691 -12.33609611 0.75642335 C-10.47527399 0.83615876 -8.61469652 0.92154794 -6.75414562 1.00737953 C-4.08140177 1.00021811 -2.57327067 0 0 0 Z " fill="#F37CED" transform="translate(319,266)"/>
<path d="M0 0 C-0.50771942 1.1144751 -0.50771942 1.1144751 -1.0256958 2.25146484 C-2.41133095 7.58255349 -1.92758489 12.51175641 -1.58886719 17.9765625 C-1.45645027 20.47520985 -1.32667428 22.97399817 -1.19915771 25.47290039 C-1.16470377 26.12957797 -1.13024983 26.78625555 -1.09475183 27.46283245 C-0.65612829 36.0004174 -0.44343477 44.54552749 -0.22880888 53.09122276 C-0.02084416 61.36898864 0.25613494 69.6262091 0.78759766 77.89013672 C1.33648897 86.61400639 1.65655107 95.32046054 1.640625 104.0625 C1.63880376 105.12781574 1.63880376 105.12781574 1.63694572 106.21465302 C1.45652758 128.17318148 -4.13256445 142.40793779 -19.63726807 158.09545898 C-45.05360467 183 -45.05360467 183 -50 183 C-50.00054477 182.24185658 -50.00108953 181.48371317 -50.00165081 180.70259571 C-50.01661615 162.25781809 -50.05905289 143.81329112 -50.13209057 125.36864948 C-50.16674817 116.44894487 -50.19209709 107.52939491 -50.19555664 98.60961914 C-50.19859547 90.83539211 -50.21907489 83.06144048 -50.26052457 75.28731984 C-50.28186384 71.17065025 -50.29445058 67.05437227 -50.28615379 62.93764687 C-50.27861927 59.06243548 -50.2944108 55.18801793 -50.32806015 51.31295204 C-50.33630083 49.89118794 -50.33603449 48.46934501 -50.32659721 47.04758835 C-50.31498005 45.10503523 -50.33704864 43.16236803 -50.36076355 41.21992493 C-50.36352893 40.133131 -50.36629431 39.04633707 -50.36914349 37.92660999 C-51.20812853 34.03446979 -52.99558235 32.51981983 -56 30 C-57.93547777 29.02489572 -57.93547777 29.02489572 -59.8125 28.6875 C-60.864375 28.460625 -61.91625 28.23375 -63 28 C-55.01496579 18.64527015 -39.24069852 14.26593645 -28.125 9.6875 C-27.50820374 9.43324249 -26.89140747 9.17898499 -26.25592041 8.91702271 C-4.54481454 0 -4.54481454 0 0 0 Z " fill="#FD7DFD" transform="translate(203,49)"/>
<path d="M0 0 C-0.41911594 7.95482056 -2.80238636 14.38082162 -5.875 21.6875 C-6.60505249 23.44489502 -6.60505249 23.44489502 -7.34985352 25.23779297 C-10.67611692 33.13092902 -14.18290281 40.92634169 -17.9375 48.625 C-18.60918213 50.02818481 -18.60918213 50.02818481 -19.29443359 51.4597168 C-19.72191895 52.31090088 -20.1494043 53.16208496 -20.58984375 54.0390625 C-20.95972412 54.78365723 -21.32960449 55.52825195 -21.71069336 56.29541016 C-23 58 -23 58 -25.15063477 58.74755859 C-25.76092529 58.83086426 -26.37121582 58.91416992 -27 59 C-27.556875 58.05125 -28.11375 57.1025 -28.6875 56.125 C-31.19612721 52.73496322 -32.09079433 52.17312057 -36 51 C-38.95009758 50.69204423 -38.95009758 50.69204423 -42.14399719 50.7215271 C-43.37933701 50.71036362 -44.61467682 50.69920013 -45.88745117 50.68769836 C-47.24829071 50.68533366 -48.60913059 50.68315796 -49.9699707 50.68115234 C-51.40911927 50.67184991 -52.84826246 50.66168076 -54.28739929 50.65071106 C-58.18779386 50.62343249 -62.08815235 50.60826803 -65.98861718 50.59528303 C-70.06725717 50.57964311 -74.14582359 50.55285563 -78.22441101 50.5272522 C-85.94489768 50.48047967 -93.66539821 50.44372818 -101.38595408 50.41057932 C-110.1767584 50.37234716 -118.96748881 50.32293986 -127.75823081 50.27259517 C-145.83876643 50.16929801 -163.91934717 50.0800304 -182 50 C-181.15302048 49.03748322 -180.30604095 48.07496643 -179.43339539 47.08328247 C-177.06922213 44.33069406 -174.86812509 41.5109428 -172.73103333 38.57907104 C-160.51133019 21.99428414 -145.93579139 3.49290093 -124.47875786 0.14505386 C-107.95410322 -1.97306215 -91.08315308 -1.10859368 -74.49811566 -0.21336961 C-66.08032604 0.23285438 -57.65941198 0.40289644 -49.23242188 0.578125 C-40.63107711 0.76440641 -32.034657 0.97411863 -23.43937683 1.35305786 C-22.14962952 1.40808975 -20.8598822 1.46312164 -19.53105164 1.51982117 C-17.12220807 1.6265291 -14.71373395 1.74207607 -12.30581665 1.8679657 C-11.24883072 1.91460861 -10.19184479 1.96125153 -9.10282898 2.00930786 C-8.18413371 2.05572985 -7.26543844 2.10215183 -6.31890392 2.14998055 C-3.69181351 1.98006732 -2.39705221 0 0 0 Z " fill="#FB7CFA" transform="translate(350,197)"/>
<path d="M0 0 C0.66 0.33 1.32 0.66 2 1 C-4.93 7.93 -11.86 14.86 -19 22 C-19.66 21.67 -20.32 21.34 -21 21 C-14.47429312 13.40315437 -7.47007318 6.64849153 0 0 Z " fill="#DA80C6" transform="translate(103,101)"/>
</svg>
