<?xml version="1.0" encoding="UTF-8" standalone="no"?>
<svg
   viewBox="0 0 140 140"
   width="140"
   height="140"
   version="1.1"
   id="svg27"
   sodipodi:docname="player-base-outfitSGC.svg"
   xmlns:inkscape="http://www.inkscape.org/namespaces/inkscape"
   xmlns:sodipodi="http://sodipodi.sourceforge.net/DTD/sodipodi-0.dtd"
   xmlns="http://www.w3.org/2000/svg"
   xmlns:svg="http://www.w3.org/2000/svg">
  <defs
     id="defs27" />
  <sodipodi:namedview
     id="namedview27"
     pagecolor="#ffffff"
     bordercolor="#000000"
     borderopacity="0.25"
     inkscape:showpageshadow="2"
     inkscape:pageopacity="0.0"
     inkscape:pagecheckerboard="0"
     inkscape:deskcolor="#d1d1d1">
    <inkscape:page
       x="0"
       y="0"
       width="140"
       height="140"
       id="page2"
       margin="0"
       bleed="0" />
  </sodipodi:namedview>
  <g
     id="Layer_2"
     data-name="Layer 2">
    <rect
       width="140"
       height="140"
       style="opacity:0;fill:#ffffff"
       id="rect1"
       x="0"
       y="0" />
  </g>
  <g
     id="Layer_1"
     data-name="Layer 1"
     transform="rotate(-90,70,70)">
    <g
       id="g27">
      <path
         d="M 70,3.5 C 33.27,3.5 3.5,33.27 3.5,70 c 0,11.16 2.76,21.67 7.62,30.9 11.13,21.16 33.31,35.6 58.88,35.6 25.57,0 47.75,-14.44 58.88,-35.6 C 133.74,91.67 136.5,81.16 136.5,70 136.5,33.27 106.73,3.5 70,3.5 Z"
         style="isolation:isolate;fill:#080808"
         id="path1" />
      <g
         id="g18">
        <path
           d="m 43.4,104.51 -10.34,-3.18 -3.84,-1.18 -13.39,-4.12 c -0.24,1.87 -0.43,3.96 -0.5,6.12 l 13.83,4.26 3.93,1.21 10,3.08 c -0.04,-0.59 -0.06,-1.19 -0.06,-1.78 0,-1.5 0.13,-2.97 0.37,-4.4 z"
           style="fill:#c4a214"
           id="path2" />
        <path
           d="m 96.6,104.51 10.34,-3.18 3.84,-1.18 13.39,-4.12 c 0.24,1.87 0.43,3.96 0.5,6.12 l -13.83,4.26 -3.93,1.21 -10,3.08 c 0.04,-0.59 0.06,-1.19 0.06,-1.78 0,-1.5 -0.13,-2.97 -0.37,-4.4 z"
           style="fill:#c4a214"
           id="path3" />
        <g
           id="g17">
          <path
             d="m 70,133.88 c -9.3,0 -17.77,-5.12 -22.1,-13.36 -1.87,-3.56 -2.86,-7.57 -2.86,-11.6 0,-13.76 11.2,-24.96 24.96,-24.96 13.76,0 24.96,11.2 24.96,24.96 0,4.03 -0.99,8.04 -2.86,11.6 -4.33,8.24 -12.8,13.36 -22.1,13.36 z"
             style="isolation:isolate;fill:#040404"
             id="path4" />
          <path
             d="m 70,85.96 c 12.68,0 22.96,10.28 22.96,22.96 0,3.85 -0.95,7.48 -2.63,10.67 -3.84,7.31 -11.5,12.29 -20.33,12.29 -8.83,0 -16.49,-4.99 -20.33,-12.29 -1.68,-3.19 -2.63,-6.82 -2.63,-10.67 0,-12.68 10.28,-22.96 22.96,-22.96 m 0,-4 c -14.87,0 -26.96,12.09 -26.96,26.96 0,4.35 1.07,8.69 3.09,12.53 4.68,8.9 13.83,14.43 23.87,14.43 10.04,0 19.19,-5.53 23.87,-14.43 2.02,-3.84 3.09,-8.18 3.09,-12.53 C 96.96,94.05 84.87,81.96 70,81.96 Z"
             style="isolation:isolate"
             id="path5" />
          <g
             style="isolation:isolate"
             id="g13">
            <path
               d="m 53.31,112.07 c -0.06,-0.33 -0.11,-0.66 -0.15,-0.99 -0.03,-0.26 -0.05,-0.52 -0.08,-0.77 -0.03,-0.33 -0.04,-0.66 -0.05,-1 0,-0.13 -0.01,-0.26 -0.01,-0.39 0,-0.13 0.02,-0.26 0.02,-0.39 0,-0.34 0.02,-0.67 0.05,-1 0.02,-0.26 0.05,-0.52 0.08,-0.77 0.04,-0.33 0.09,-0.66 0.15,-0.99 0.05,-0.26 0.11,-0.51 0.17,-0.76 0.08,-0.33 0.15,-0.65 0.25,-0.97 l -0.96,-0.26 -1.08,-0.29 -0.96,-0.26 -1.08,-0.29 -0.97,-0.26 c -0.09,0.32 -0.18,0.64 -0.26,0.97 -0.1,0.43 -0.19,0.86 -0.27,1.3 -0.06,0.33 -0.11,0.66 -0.16,0.99 -0.06,0.44 -0.1,0.88 -0.14,1.32 -0.02,0.33 -0.04,0.66 -0.05,1 0,0.22 -0.02,0.44 -0.02,0.66 0,0.22 0.01,0.44 0.02,0.66 0.01,0.33 0.02,0.67 0.05,1 0.03,0.44 0.08,0.88 0.14,1.32 0.04,0.33 0.09,0.66 0.15,0.99 0.08,0.43 0.17,0.87 0.28,1.3 0.08,0.32 0.17,0.64 0.27,0.97 l 0.97,-0.26 1.08,-0.29 0.97,-0.26 1.08,-0.29 0.96,-0.26 c -0.1,-0.32 -0.18,-0.64 -0.26,-0.97 -0.06,-0.25 -0.12,-0.51 -0.16,-0.76 z m -1.88,1.3 -0.97,0.26 -1.08,0.29 c -0.1,-0.4 -0.18,-0.79 -0.26,-1.19 -0.06,-0.33 -0.11,-0.66 -0.15,-0.99 -0.05,-0.4 -0.1,-0.81 -0.13,-1.21 l 1.11,-0.06 c 0.03,0.37 0.07,0.73 0.11,1.1 0.04,0.33 0.09,0.66 0.15,0.99 l 0.99,-0.16 c -0.06,-0.33 -0.11,-0.66 -0.15,-0.99 -0.04,-0.33 -0.08,-0.66 -0.1,-0.99 -0.03,-0.33 -0.04,-0.66 -0.05,-1 l -1,0.05 -1.11,0.06 c 0,-0.2 -0.02,-0.41 -0.02,-0.61 0,-0.2 0.03,-0.41 0.03,-0.61 l 1.11,0.06 1,0.05 c 0,-0.33 0.02,-0.67 0.05,-1 0.03,-0.33 0.06,-0.66 0.11,-0.99 0.04,-0.33 0.09,-0.66 0.15,-0.99 l -0.99,-0.16 c -0.06,0.33 -0.11,0.66 -0.15,0.99 -0.05,0.36 -0.09,0.73 -0.12,1.1 l -1.11,-0.06 c 0.03,-0.41 0.07,-0.81 0.13,-1.21 0.04,-0.33 0.09,-0.66 0.15,-0.99 0.07,-0.4 0.16,-0.8 0.26,-1.19 l 1.08,0.29 0.96,0.26 1.08,0.29 c -0.07,0.29 -0.13,0.57 -0.19,0.86 -0.06,0.33 -0.11,0.66 -0.15,0.99 -0.04,0.29 -0.07,0.58 -0.09,0.88 -0.03,0.33 -0.04,0.66 -0.05,1 0,0.15 -0.02,0.29 -0.02,0.44 0,0.15 0,0.29 0.01,0.44 0,0.33 0.03,0.67 0.05,1 0.02,0.29 0.05,0.59 0.09,0.88 0.04,0.33 0.09,0.66 0.15,0.99 0.05,0.29 0.12,0.58 0.19,0.86 l -1.08,0.29 z"
               style="opacity:0.98;fill:#56480d"
               id="path6" />
            <path
               d="m 59.01,121.87 c -0.25,-0.22 -0.5,-0.44 -0.74,-0.67 -0.19,-0.18 -0.37,-0.37 -0.55,-0.55 -0.23,-0.24 -0.45,-0.49 -0.67,-0.74 -0.08,-0.1 -0.17,-0.19 -0.25,-0.3 -0.08,-0.11 -0.15,-0.21 -0.23,-0.31 -0.2,-0.27 -0.4,-0.53 -0.59,-0.81 -0.15,-0.22 -0.29,-0.43 -0.42,-0.65 -0.18,-0.28 -0.35,-0.57 -0.5,-0.86 -0.12,-0.23 -0.24,-0.46 -0.35,-0.69 -0.15,-0.3 -0.29,-0.6 -0.42,-0.91 l -0.91,0.41 -1.02,0.45 -0.91,0.41 -1.02,0.45 -0.92,0.41 c 0.13,0.31 0.26,0.61 0.41,0.91 0.19,0.4 0.39,0.79 0.6,1.18 0.16,0.29 0.33,0.58 0.5,0.87 0.23,0.38 0.47,0.75 0.72,1.11 0.19,0.27 0.38,0.54 0.59,0.81 0.13,0.18 0.26,0.35 0.4,0.53 0.14,0.18 0.29,0.33 0.43,0.5 0.22,0.25 0.44,0.5 0.67,0.74 0.3,0.32 0.62,0.63 0.94,0.94 0.24,0.23 0.49,0.46 0.74,0.67 0.33,0.29 0.68,0.57 1.03,0.83 0.27,0.2 0.54,0.39 0.81,0.58 l 0.59,-0.81 0.66,-0.9 0.59,-0.81 0.66,-0.9 0.58,-0.8 c -0.28,-0.19 -0.55,-0.38 -0.81,-0.59 -0.2,-0.16 -0.41,-0.32 -0.61,-0.49 z m -0.64,2.2 -0.59,0.81 -0.66,0.9 c -0.32,-0.25 -0.64,-0.5 -0.95,-0.77 -0.25,-0.22 -0.5,-0.44 -0.74,-0.67 -0.3,-0.28 -0.58,-0.57 -0.86,-0.86 l 0.83,-0.75 c 0.25,0.27 0.51,0.53 0.78,0.78 0.24,0.23 0.49,0.46 0.74,0.67 l 0.67,-0.74 c -0.25,-0.22 -0.5,-0.44 -0.74,-0.67 -0.24,-0.23 -0.48,-0.47 -0.71,-0.71 -0.23,-0.24 -0.45,-0.49 -0.67,-0.74 l -0.74,0.67 -0.83,0.75 c -0.13,-0.15 -0.27,-0.3 -0.4,-0.46 -0.13,-0.16 -0.24,-0.33 -0.36,-0.49 l 0.9,-0.65 0.81,-0.59 c -0.2,-0.27 -0.4,-0.53 -0.59,-0.81 -0.19,-0.28 -0.37,-0.56 -0.54,-0.84 -0.18,-0.29 -0.35,-0.57 -0.5,-0.86 l -0.87,0.5 c 0.16,0.29 0.33,0.58 0.5,0.86 0.19,0.31 0.39,0.62 0.6,0.93 l -0.9,0.65 c -0.23,-0.34 -0.45,-0.68 -0.66,-1.02 -0.17,-0.29 -0.35,-0.57 -0.5,-0.86 -0.2,-0.36 -0.37,-0.72 -0.55,-1.09 l 1.02,-0.45 0.91,-0.41 1.02,-0.45 c 0.13,0.26 0.25,0.53 0.39,0.79 0.16,0.29 0.33,0.58 0.5,0.86 0.15,0.25 0.31,0.5 0.48,0.74 0.19,0.27 0.38,0.54 0.59,0.81 0.09,0.12 0.17,0.24 0.26,0.36 0.09,0.12 0.19,0.22 0.29,0.33 0.22,0.25 0.44,0.5 0.67,0.74 0.2,0.21 0.41,0.42 0.62,0.63 0.24,0.23 0.49,0.45 0.74,0.67 0.22,0.19 0.45,0.37 0.69,0.55 l -0.66,0.9 z"
               style="opacity:0.98;fill:#56480d"
               id="path7" />
            <path
               d="m 59.61,95.47 c 0.26,-0.2 0.53,-0.4 0.81,-0.59 l -0.58,-0.8 -0.66,-0.9 -0.59,-0.81 -0.66,-0.9 -0.59,-0.81 c -0.27,0.19 -0.55,0.38 -0.81,0.58 -0.35,0.27 -0.69,0.54 -1.03,0.83 -0.25,0.22 -0.5,0.44 -0.74,0.67 -0.32,0.3 -0.63,0.62 -0.94,0.94 -0.23,0.24 -0.45,0.49 -0.67,0.74 -0.14,0.17 -0.29,0.33 -0.43,0.5 -0.14,0.17 -0.27,0.35 -0.4,0.53 -0.2,0.27 -0.4,0.54 -0.59,0.81 -0.25,0.37 -0.49,0.74 -0.72,1.11 -0.17,0.29 -0.34,0.57 -0.5,0.87 -0.21,0.39 -0.42,0.78 -0.6,1.18 -0.14,0.3 -0.28,0.61 -0.41,0.91 l 0.92,0.41 1.02,0.45 0.91,0.41 1.02,0.45 0.91,0.41 c 0.13,-0.31 0.27,-0.61 0.42,-0.91 0.11,-0.23 0.22,-0.47 0.35,-0.69 0.16,-0.29 0.33,-0.58 0.5,-0.86 0.14,-0.22 0.28,-0.44 0.42,-0.65 0.19,-0.27 0.38,-0.54 0.59,-0.81 0.08,-0.1 0.15,-0.21 0.23,-0.31 0.08,-0.1 0.17,-0.2 0.25,-0.3 0.22,-0.26 0.44,-0.5 0.67,-0.74 0.18,-0.19 0.36,-0.38 0.55,-0.55 0.24,-0.23 0.49,-0.46 0.74,-0.67 0.2,-0.17 0.4,-0.33 0.61,-0.49 z m -0.58,-0.8 c -0.23,0.18 -0.46,0.36 -0.69,0.55 -0.25,0.22 -0.5,0.44 -0.74,0.67 -0.21,0.2 -0.42,0.41 -0.62,0.63 -0.23,0.24 -0.45,0.49 -0.67,0.74 -0.1,0.11 -0.2,0.22 -0.29,0.33 -0.09,0.11 -0.17,0.24 -0.26,0.36 -0.2,0.27 -0.4,0.53 -0.59,0.81 -0.17,0.24 -0.33,0.49 -0.48,0.74 -0.18,0.29 -0.35,0.57 -0.5,0.86 -0.14,0.26 -0.27,0.52 -0.39,0.79 l -1.02,-0.45 -0.91,-0.41 -1.02,-0.45 c 0.17,-0.37 0.35,-0.73 0.55,-1.09 0.16,-0.29 0.33,-0.58 0.5,-0.86 0.21,-0.35 0.43,-0.69 0.66,-1.02 l 0.9,0.65 c -0.21,0.3 -0.41,0.61 -0.6,0.93 -0.17,0.29 -0.35,0.57 -0.5,0.86 l 0.87,0.5 c 0.16,-0.29 0.33,-0.58 0.5,-0.86 0.17,-0.28 0.35,-0.56 0.54,-0.84 0.19,-0.27 0.38,-0.54 0.59,-0.81 l -0.81,-0.59 -0.9,-0.65 c 0.12,-0.16 0.23,-0.33 0.36,-0.49 0.13,-0.16 0.27,-0.31 0.4,-0.46 l 0.83,0.75 0.74,0.67 c 0.22,-0.25 0.44,-0.5 0.67,-0.74 0.23,-0.24 0.46,-0.48 0.71,-0.71 0.24,-0.23 0.49,-0.46 0.74,-0.67 l -0.67,-0.74 c -0.25,0.22 -0.5,0.44 -0.74,0.67 -0.27,0.25 -0.53,0.51 -0.78,0.78 l -0.83,-0.75 c 0.28,-0.3 0.57,-0.58 0.86,-0.86 0.24,-0.23 0.49,-0.46 0.74,-0.67 0.31,-0.26 0.63,-0.52 0.95,-0.77 l 0.66,0.9 0.59,0.81 0.66,0.9 z"
               style="opacity:0.98;fill:#56480d"
               id="path8" />
            <path
               d="m 86.54,112.83 c -0.08,0.32 -0.16,0.65 -0.26,0.97 l 0.96,0.26 1.08,0.29 0.97,0.26 1.08,0.29 0.97,0.26 c 0.09,-0.32 0.19,-0.64 0.27,-0.97 0.1,-0.43 0.2,-0.86 0.28,-1.3 0.06,-0.33 0.11,-0.66 0.15,-0.99 0.06,-0.44 0.11,-0.88 0.14,-1.32 0.03,-0.33 0.04,-0.66 0.05,-1 0,-0.22 0.02,-0.44 0.02,-0.66 0,-0.22 -0.01,-0.44 -0.02,-0.66 0,-0.33 -0.03,-0.67 -0.05,-1 -0.03,-0.44 -0.08,-0.88 -0.14,-1.32 -0.04,-0.33 -0.1,-0.66 -0.16,-0.99 -0.08,-0.44 -0.17,-0.87 -0.27,-1.3 -0.08,-0.33 -0.17,-0.65 -0.26,-0.97 l -0.97,0.26 -1.08,0.29 -0.96,0.26 -1.08,0.29 -0.96,0.26 c 0.1,0.32 0.17,0.64 0.25,0.97 0.06,0.25 0.12,0.5 0.17,0.76 0.06,0.33 0.11,0.66 0.15,0.99 0.03,0.26 0.06,0.51 0.08,0.77 0.03,0.33 0.04,0.66 0.05,1 0,0.13 0.02,0.26 0.02,0.39 0,0.13 0,0.26 -0.01,0.39 0,0.33 -0.02,0.67 -0.05,1 -0.02,0.26 -0.04,0.52 -0.08,0.77 -0.04,0.33 -0.09,0.66 -0.15,0.99 -0.05,0.26 -0.1,0.51 -0.16,0.76 z m 0.96,0.25 c 0.07,-0.29 0.13,-0.57 0.19,-0.86 0.06,-0.33 0.11,-0.66 0.15,-0.99 0.04,-0.29 0.07,-0.58 0.09,-0.88 0.03,-0.33 0.04,-0.66 0.05,-1 0,-0.15 0.01,-0.29 0.01,-0.44 0,-0.15 -0.02,-0.29 -0.02,-0.44 0,-0.33 -0.02,-0.67 -0.05,-1 -0.02,-0.29 -0.06,-0.59 -0.09,-0.88 -0.04,-0.33 -0.09,-0.66 -0.15,-0.99 -0.05,-0.29 -0.12,-0.58 -0.19,-0.86 l 1.08,-0.29 0.96,-0.26 1.08,-0.29 c 0.1,0.39 0.19,0.79 0.26,1.19 0.06,0.33 0.11,0.66 0.15,0.99 0.05,0.4 0.1,0.8 0.13,1.21 l -1.11,0.06 c -0.03,-0.37 -0.07,-0.73 -0.12,-1.1 -0.04,-0.33 -0.09,-0.66 -0.15,-0.99 l -0.99,0.16 c 0.06,0.33 0.11,0.66 0.15,0.99 0.04,0.33 0.08,0.66 0.11,0.99 0.03,0.33 0.04,0.66 0.05,1 l 1,-0.05 1.11,-0.06 c 0,0.2 0.03,0.4 0.03,0.61 0,0.2 -0.01,0.41 -0.02,0.61 l -1.11,-0.06 -1,-0.05 c 0,0.33 -0.03,0.67 -0.05,1 -0.03,0.33 -0.06,0.66 -0.1,0.99 -0.04,0.33 -0.09,0.66 -0.15,0.99 l 0.99,0.16 c 0.06,-0.33 0.11,-0.66 0.15,-0.99 0.05,-0.36 0.09,-0.73 0.11,-1.1 l 1.11,0.06 c -0.03,0.41 -0.07,0.81 -0.13,1.21 -0.04,0.33 -0.09,0.66 -0.15,0.99 -0.07,0.4 -0.16,0.8 -0.26,1.19 l -1.08,-0.29 -0.97,-0.26 -1.08,-0.29 z"
               style="opacity:0.98;fill:#56480d"
               id="path9" />
            <path
               d="m 80.4,122.36 c -0.26,0.2 -0.53,0.4 -0.81,0.59 l 0.58,0.8 0.66,0.9 0.59,0.81 0.66,0.9 0.59,0.81 c 0.27,-0.19 0.55,-0.38 0.81,-0.58 0.35,-0.27 0.69,-0.54 1.03,-0.83 0.25,-0.22 0.5,-0.44 0.74,-0.67 0.32,-0.3 0.63,-0.62 0.94,-0.94 0.23,-0.24 0.45,-0.49 0.67,-0.74 0.14,-0.17 0.29,-0.33 0.43,-0.5 0.14,-0.17 0.27,-0.35 0.4,-0.53 0.2,-0.27 0.4,-0.54 0.59,-0.81 0.25,-0.37 0.49,-0.74 0.72,-1.11 0.17,-0.29 0.34,-0.57 0.5,-0.87 0.21,-0.39 0.42,-0.78 0.6,-1.18 0.14,-0.3 0.28,-0.61 0.41,-0.91 l -0.92,-0.41 -1.02,-0.45 -0.91,-0.41 -1.02,-0.45 -0.91,-0.41 c -0.13,0.31 -0.27,0.61 -0.42,0.91 -0.11,0.23 -0.22,0.47 -0.35,0.69 -0.16,0.29 -0.33,0.58 -0.5,0.86 -0.14,0.22 -0.28,0.44 -0.42,0.65 -0.19,0.27 -0.38,0.54 -0.59,0.81 -0.08,0.1 -0.15,0.21 -0.23,0.31 -0.08,0.1 -0.17,0.2 -0.25,0.3 -0.22,0.26 -0.44,0.5 -0.67,0.74 -0.18,0.19 -0.36,0.38 -0.55,0.55 -0.24,0.23 -0.49,0.46 -0.74,0.67 -0.2,0.17 -0.4,0.33 -0.61,0.49 z m 0.58,0.8 c 0.23,-0.18 0.46,-0.36 0.69,-0.55 0.25,-0.22 0.5,-0.44 0.74,-0.67 0.21,-0.2 0.42,-0.41 0.62,-0.63 0.23,-0.24 0.45,-0.49 0.67,-0.74 0.1,-0.11 0.2,-0.22 0.29,-0.33 0.09,-0.11 0.17,-0.24 0.26,-0.36 0.2,-0.27 0.4,-0.53 0.59,-0.81 0.17,-0.24 0.33,-0.49 0.48,-0.74 0.18,-0.29 0.35,-0.57 0.5,-0.86 0.14,-0.26 0.27,-0.52 0.39,-0.79 l 1.02,0.45 0.91,0.41 1.02,0.45 c -0.17,0.37 -0.35,0.73 -0.55,1.09 -0.16,0.29 -0.33,0.58 -0.5,0.86 -0.21,0.35 -0.43,0.69 -0.66,1.02 l -0.9,-0.65 c 0.21,-0.3 0.41,-0.61 0.6,-0.93 0.17,-0.29 0.35,-0.57 0.5,-0.86 l -0.87,-0.5 c -0.16,0.29 -0.33,0.58 -0.5,0.86 -0.17,0.28 -0.35,0.56 -0.54,0.84 -0.19,0.27 -0.38,0.54 -0.59,0.81 l 0.81,0.59 0.9,0.65 c -0.12,0.16 -0.23,0.33 -0.36,0.49 -0.13,0.16 -0.27,0.31 -0.4,0.46 l -0.83,-0.75 -0.74,-0.67 c -0.22,0.25 -0.44,0.5 -0.67,0.74 -0.23,0.24 -0.46,0.48 -0.71,0.71 -0.24,0.23 -0.49,0.46 -0.74,0.67 l 0.67,0.74 c 0.25,-0.22 0.5,-0.44 0.74,-0.67 0.27,-0.25 0.53,-0.51 0.78,-0.78 l 0.83,0.75 c -0.28,0.3 -0.57,0.58 -0.86,0.86 -0.24,0.23 -0.49,0.46 -0.74,0.67 -0.31,0.26 -0.63,0.52 -0.95,0.77 l -0.66,-0.9 -0.59,-0.81 -0.66,-0.9 z"
               style="opacity:0.98;fill:#56480d"
               id="path10" />
            <path
               d="m 81,95.96 c 0.25,0.22 0.5,0.44 0.74,0.67 0.19,0.18 0.37,0.37 0.55,0.55 0.23,0.24 0.45,0.49 0.67,0.74 0.08,0.1 0.17,0.19 0.25,0.3 0.08,0.11 0.15,0.21 0.23,0.31 0.2,0.27 0.4,0.53 0.59,0.81 0.15,0.22 0.29,0.43 0.42,0.65 0.18,0.28 0.35,0.57 0.5,0.86 0.12,0.23 0.24,0.46 0.35,0.69 0.15,0.3 0.29,0.6 0.42,0.91 l 0.91,-0.41 1.02,-0.45 0.91,-0.41 1.02,-0.45 0.92,-0.41 c -0.13,-0.31 -0.26,-0.61 -0.41,-0.91 -0.19,-0.4 -0.39,-0.79 -0.6,-1.18 -0.16,-0.29 -0.33,-0.58 -0.5,-0.87 -0.23,-0.38 -0.47,-0.75 -0.72,-1.11 -0.19,-0.27 -0.38,-0.54 -0.59,-0.81 -0.13,-0.18 -0.26,-0.35 -0.4,-0.53 -0.14,-0.18 -0.29,-0.33 -0.43,-0.5 -0.22,-0.25 -0.44,-0.5 -0.67,-0.74 -0.3,-0.32 -0.62,-0.63 -0.94,-0.94 C 85,92.5 84.75,92.27 84.5,92.06 84.17,91.77 83.82,91.49 83.47,91.23 83.2,91.03 82.93,90.84 82.66,90.65 l -0.59,0.81 -0.66,0.9 -0.59,0.81 -0.66,0.9 -0.58,0.8 c 0.28,0.19 0.55,0.38 0.81,0.59 0.2,0.16 0.41,0.32 0.61,0.49 z m 0.64,-2.2 0.59,-0.81 0.66,-0.9 c 0.32,0.25 0.64,0.5 0.95,0.77 0.25,0.22 0.5,0.44 0.74,0.67 0.3,0.28 0.58,0.57 0.86,0.86 L 84.61,95.1 C 84.36,94.83 84.1,94.57 83.83,94.32 83.59,94.09 83.34,93.86 83.09,93.65 l -0.67,0.74 c 0.25,0.22 0.5,0.44 0.74,0.67 0.24,0.23 0.48,0.47 0.71,0.71 0.23,0.24 0.45,0.49 0.67,0.74 l 0.74,-0.67 0.83,-0.75 c 0.13,0.15 0.27,0.3 0.4,0.46 0.13,0.16 0.24,0.33 0.36,0.49 l -0.9,0.65 -0.81,0.59 c 0.2,0.27 0.4,0.53 0.59,0.81 0.19,0.28 0.37,0.56 0.54,0.84 0.18,0.29 0.35,0.57 0.5,0.86 l 0.87,-0.5 C 87.5,99 87.33,98.71 87.16,98.43 86.97,98.12 86.77,97.81 86.56,97.5 l 0.9,-0.65 c 0.23,0.34 0.45,0.68 0.66,1.02 0.17,0.29 0.35,0.57 0.5,0.86 0.2,0.36 0.37,0.72 0.55,1.09 l -1.02,0.45 -0.91,0.41 -1.02,0.45 c -0.13,-0.26 -0.25,-0.53 -0.39,-0.79 -0.16,-0.29 -0.33,-0.58 -0.5,-0.86 -0.15,-0.25 -0.31,-0.5 -0.48,-0.74 C 84.66,98.47 84.47,98.2 84.26,97.93 84.17,97.81 84.09,97.69 84,97.57 83.91,97.45 83.81,97.35 83.71,97.24 83.49,96.99 83.27,96.74 83.04,96.5 82.84,96.29 82.63,96.08 82.42,95.87 82.18,95.64 81.93,95.42 81.68,95.2 81.46,95.01 81.23,94.83 80.99,94.65 l 0.66,-0.9 z"
               style="opacity:0.98;fill:#56480d"
               id="path11" />
            <path
               d="M 79.64,88.9 C 79.24,88.71 78.84,88.53 78.43,88.36 78.12,88.23 77.81,88.11 77.5,88 77.08,87.85 76.66,87.72 76.24,87.59 75.92,87.5 75.6,87.41 75.27,87.33 74.84,87.23 74.41,87.14 73.97,87.06 73.64,87 73.31,86.95 72.98,86.9 72.54,86.84 72.1,86.8 71.66,86.76 c -0.33,-0.02 -0.66,-0.04 -1,-0.05 -0.22,0 -0.44,-0.02 -0.66,-0.02 -0.22,0 -0.44,0.01 -0.66,0.02 -0.33,0 -0.67,0.03 -1,0.05 -0.44,0.03 -0.88,0.08 -1.32,0.14 -0.33,0.04 -0.66,0.1 -0.99,0.16 -0.44,0.08 -0.87,0.17 -1.3,0.27 -0.32,0.08 -0.65,0.17 -0.97,0.26 -0.43,0.12 -0.85,0.26 -1.26,0.41 -0.31,0.11 -0.62,0.23 -0.93,0.36 -0.41,0.17 -0.81,0.34 -1.2,0.53 -0.3,0.15 -0.6,0.3 -0.89,0.46 l 0.45,0.89 0.51,0.99 0.45,0.89 0.51,1 0.45,0.89 c 0.29,-0.16 0.6,-0.3 0.9,-0.44 0.23,-0.11 0.46,-0.23 0.7,-0.33 0.31,-0.13 0.62,-0.23 0.94,-0.34 0.24,-0.09 0.49,-0.18 0.74,-0.25 0.32,-0.1 0.64,-0.17 0.97,-0.25 0.25,-0.06 0.5,-0.12 0.76,-0.17 0.33,-0.06 0.66,-0.11 0.99,-0.15 0.26,-0.03 0.51,-0.06 0.77,-0.08 0.33,-0.03 0.66,-0.04 1,-0.05 l -0.05,-1 -0.06,-1.11 -0.05,-1 c -0.34,0 -0.67,0.03 -1,0.05 -0.37,0.03 -0.73,0.07 -1.1,0.12 l -0.17,-1.1 c 0.4,-0.05 0.8,-0.1 1.21,-0.13 0.33,-0.03 0.66,-0.04 1,-0.05 0.2,0 0.4,-0.03 0.61,-0.03 0.21,0 0.41,0.03 0.61,0.03 0.33,0 0.67,0.03 1,0.05 0.41,0.03 0.81,0.07 1.21,0.13 l -0.17,1.1 c -0.36,-0.05 -0.73,-0.09 -1.1,-0.12 -0.33,-0.03 -0.66,-0.04 -1,-0.05 l -0.05,1 -0.06,1.11 -0.05,1 c 0.34,0 0.67,0.02 1,0.05 0.26,0.02 0.52,0.05 0.77,0.08 0.33,0.04 0.66,0.09 0.99,0.15 0.26,0.05 0.51,0.11 0.76,0.17 0.33,0.08 0.65,0.15 0.97,0.25 0.25,0.08 0.49,0.17 0.74,0.25 0.31,0.11 0.63,0.22 0.94,0.34 0.24,0.1 0.47,0.22 0.7,0.33 0.3,0.14 0.61,0.28 0.9,0.44 l 0.45,-0.89 0.51,-1 0.45,-0.89 0.51,-0.99 0.45,-0.89 c -0.29,-0.16 -0.59,-0.31 -0.89,-0.46 z m -13.27,0.26 0.16,0.99 c 0.33,-0.06 0.66,-0.11 0.99,-0.15 0.33,-0.04 0.66,-0.08 0.99,-0.11 L 68.57,91 c -0.29,0.02 -0.59,0.06 -0.88,0.09 -0.33,0.04 -0.66,0.09 -0.99,0.15 -0.29,0.05 -0.58,0.12 -0.86,0.19 -0.32,0.08 -0.65,0.15 -0.97,0.25 -0.28,0.08 -0.56,0.19 -0.84,0.28 -0.31,0.11 -0.63,0.22 -0.94,0.34 -0.27,0.11 -0.53,0.25 -0.79,0.37 L 61.79,91.68 61.34,90.79 60.83,89.8 c 0.36,-0.18 0.72,-0.35 1.1,-0.51 0.31,-0.13 0.62,-0.23 0.94,-0.34 0.38,-0.14 0.76,-0.27 1.16,-0.39 l 0.29,1.08 c -0.35,0.1 -0.7,0.23 -1.05,0.35 -0.31,0.11 -0.63,0.22 -0.94,0.34 l 0.36,0.93 c 0.31,-0.13 0.62,-0.23 0.94,-0.34 0.31,-0.11 0.63,-0.22 0.95,-0.32 0.32,-0.09 0.64,-0.17 0.97,-0.25 L 65.29,89.39 65,88.31 c 0.39,-0.1 0.79,-0.19 1.19,-0.26 l 0.17,1.1 z m 12.3,1.65 -0.45,0.89 -0.51,0.99 c -0.27,-0.13 -0.53,-0.26 -0.8,-0.38 -0.31,-0.13 -0.62,-0.23 -0.94,-0.34 -0.28,-0.1 -0.55,-0.2 -0.84,-0.28 -0.32,-0.1 -0.64,-0.17 -0.97,-0.25 -0.29,-0.07 -0.57,-0.13 -0.86,-0.19 -0.33,-0.06 -0.66,-0.11 -0.99,-0.15 -0.29,-0.04 -0.58,-0.07 -0.88,-0.09 l 0.06,-1.11 c 0.33,0.03 0.66,0.06 0.99,0.11 0.33,0.04 0.66,0.09 0.99,0.15 l 0.16,-0.99 0.17,-1.1 c 0.4,0.07 0.8,0.16 1.19,0.26 l -0.29,1.08 -0.26,0.96 c 0.33,0.08 0.65,0.16 0.97,0.25 0.32,0.1 0.63,0.21 0.95,0.32 0.31,0.11 0.63,0.22 0.94,0.34 l 0.36,-0.93 c -0.31,-0.13 -0.62,-0.23 -0.94,-0.34 -0.35,-0.12 -0.69,-0.25 -1.05,-0.35 l 0.29,-1.08 c 0.39,0.12 0.78,0.25 1.16,0.39 0.31,0.11 0.63,0.22 0.94,0.34 0.38,0.16 0.74,0.34 1.11,0.51 l -0.51,0.99 z"
               style="opacity:0.98;fill:#56480d"
               id="path12" />
            <path
               d="m 80.53,128.47 -0.45,-0.89 -0.51,-0.99 -0.45,-0.89 -0.51,-1 -0.45,-0.89 c -0.29,0.16 -0.6,0.3 -0.9,0.44 -0.23,0.11 -0.46,0.23 -0.7,0.33 -0.31,0.13 -0.62,0.23 -0.94,0.34 -0.24,0.09 -0.49,0.18 -0.74,0.25 -0.32,0.1 -0.64,0.17 -0.97,0.25 -0.25,0.06 -0.5,0.12 -0.76,0.17 -0.33,0.06 -0.66,0.11 -0.99,0.15 -0.26,0.03 -0.51,0.06 -0.77,0.08 -0.33,0.03 -0.66,0.04 -1,0.05 l 0.05,1 0.06,1.11 0.05,1 c 0.34,0 0.67,-0.03 1,-0.05 0.37,-0.03 0.73,-0.07 1.1,-0.12 l 0.17,1.1 c -0.4,0.05 -0.8,0.1 -1.21,0.13 -0.33,0.03 -0.66,0.04 -1,0.05 -0.2,0 -0.4,0.03 -0.61,0.03 -0.21,0 -0.4,-0.03 -0.61,-0.03 -0.34,0 -0.67,-0.03 -1,-0.05 -0.41,-0.03 -0.81,-0.07 -1.21,-0.13 l 0.17,-1.1 c 0.36,0.05 0.73,0.09 1.1,0.12 0.33,0.03 0.66,0.04 1,0.05 l 0.05,-1 0.06,-1.11 0.05,-1 c -0.34,0 -0.67,-0.02 -1,-0.05 -0.26,-0.02 -0.52,-0.05 -0.77,-0.08 -0.33,-0.04 -0.66,-0.09 -0.99,-0.15 -0.26,-0.05 -0.51,-0.11 -0.76,-0.17 -0.33,-0.08 -0.65,-0.15 -0.97,-0.25 -0.25,-0.07 -0.49,-0.17 -0.74,-0.25 -0.31,-0.11 -0.63,-0.22 -0.94,-0.34 -0.24,-0.1 -0.46,-0.22 -0.7,-0.33 -0.3,-0.14 -0.61,-0.28 -0.9,-0.44 l -0.45,0.89 -0.51,1 -0.45,0.89 -0.51,0.99 -0.45,0.89 c 0.29,0.16 0.59,0.31 0.89,0.46 0.39,0.19 0.8,0.37 1.2,0.53 0.31,0.13 0.62,0.25 0.93,0.36 0.41,0.15 0.84,0.28 1.26,0.41 0.32,0.09 0.64,0.18 0.97,0.26 0.43,0.1 0.86,0.19 1.3,0.27 0.33,0.06 0.66,0.11 0.99,0.16 0.44,0.06 0.88,0.1 1.32,0.14 0.33,0.02 0.66,0.04 1,0.05 0.22,0 0.44,0.02 0.66,0.02 0.22,0 0.44,-0.01 0.66,-0.02 0.33,0 0.67,-0.03 1,-0.05 0.44,-0.03 0.88,-0.08 1.32,-0.14 0.33,-0.04 0.66,-0.1 0.99,-0.16 0.44,-0.08 0.87,-0.17 1.3,-0.27 0.33,-0.08 0.65,-0.17 0.97,-0.26 0.43,-0.12 0.85,-0.26 1.26,-0.41 0.31,-0.11 0.62,-0.23 0.93,-0.36 0.41,-0.17 0.82,-0.35 1.21,-0.54 0.3,-0.15 0.6,-0.3 0.89,-0.46 z m -14.34,1.3 c -0.4,-0.07 -0.8,-0.16 -1.19,-0.26 l 0.29,-1.08 0.26,-0.96 c -0.32,-0.08 -0.65,-0.16 -0.97,-0.25 -0.32,-0.1 -0.63,-0.21 -0.95,-0.32 -0.31,-0.11 -0.63,-0.22 -0.94,-0.34 l -0.36,0.93 c 0.31,0.13 0.62,0.23 0.94,0.34 0.35,0.12 0.69,0.25 1.05,0.35 l -0.29,1.08 c -0.39,-0.12 -0.77,-0.25 -1.16,-0.39 -0.31,-0.11 -0.63,-0.22 -0.94,-0.34 -0.37,-0.15 -0.74,-0.33 -1.1,-0.51 l 0.51,-0.99 0.45,-0.89 0.51,-0.99 c 0.26,0.13 0.52,0.26 0.79,0.37 0.31,0.13 0.62,0.23 0.94,0.34 0.28,0.1 0.55,0.2 0.84,0.28 0.32,0.09 0.64,0.17 0.97,0.25 0.29,0.07 0.57,0.13 0.86,0.19 0.33,0.06 0.66,0.11 0.99,0.15 0.29,0.04 0.58,0.07 0.88,0.09 l -0.06,1.11 c -0.33,-0.03 -0.66,-0.06 -0.99,-0.11 -0.33,-0.04 -0.66,-0.09 -0.99,-0.15 l -0.16,0.99 -0.17,1.1 z m 12.98,-1.75 c -0.37,0.18 -0.73,0.36 -1.11,0.51 -0.31,0.13 -0.62,0.23 -0.94,0.34 -0.38,0.14 -0.77,0.27 -1.16,0.39 l -0.29,-1.08 c 0.36,-0.1 0.7,-0.23 1.05,-0.35 0.31,-0.11 0.63,-0.22 0.94,-0.34 l -0.36,-0.93 c -0.31,0.13 -0.62,0.23 -0.94,0.34 -0.31,0.11 -0.63,0.22 -0.95,0.32 -0.32,0.09 -0.64,0.17 -0.97,0.25 l 0.26,0.96 0.29,1.08 c -0.39,0.1 -0.79,0.19 -1.19,0.26 l -0.17,-1.1 -0.16,-0.99 c -0.33,0.06 -0.66,0.11 -0.99,0.15 -0.33,0.04 -0.66,0.08 -0.99,0.11 l -0.06,-1.11 c 0.29,-0.02 0.59,-0.06 0.88,-0.09 0.33,-0.04 0.66,-0.09 0.99,-0.15 0.29,-0.05 0.57,-0.12 0.86,-0.19 0.33,-0.08 0.65,-0.15 0.97,-0.25 0.28,-0.08 0.56,-0.19 0.84,-0.28 0.31,-0.11 0.63,-0.22 0.94,-0.34 0.27,-0.11 0.53,-0.25 0.8,-0.38 l 0.51,0.99 0.45,0.89 0.51,0.99 z"
               style="opacity:0.98;fill:#56480d"
               id="path13" />
          </g>
          <g
             id="g16">
            <path
               d="m 63.45,109.32 c -0.48,-0.28 -1.06,-0.55 -1.78,-0.82 -0.63,-0.24 -1.15,-0.47 -1.55,-0.67 -0.34,-0.17 -0.58,-0.37 -0.73,-0.58 -0.13,-0.19 -0.2,-0.46 -0.2,-0.79 0,-0.51 0.15,-0.87 0.44,-1.09 0.34,-0.25 0.8,-0.38 1.37,-0.38 0.57,0 1,0.14 1.34,0.42 0.32,0.27 0.5,0.6 0.55,1.04 0.05,0.35 0.22,0.53 0.36,0.62 0.15,0.1 0.3,0.14 0.44,0.14 h 0.28 c 0.27,0 0.5,-0.12 0.64,-0.34 0.1,-0.15 0.15,-0.32 0.15,-0.51 -0.01,-0.38 -0.1,-0.76 -0.26,-1.15 -0.16,-0.38 -0.39,-0.75 -0.7,-1.08 -0.31,-0.34 -0.71,-0.61 -1.17,-0.82 -0.46,-0.2 -1.01,-0.3 -1.62,-0.3 -0.76,0 -1.43,0.15 -1.97,0.46 -0.55,0.31 -0.98,0.73 -1.27,1.25 -0.29,0.52 -0.44,1.1 -0.44,1.74 0,0.68 0.12,1.25 0.35,1.7 0.24,0.46 0.61,0.85 1.11,1.17 0.45,0.29 1.01,0.56 1.7,0.82 0.67,0.25 1.23,0.49 1.65,0.69 0.37,0.18 0.65,0.38 0.81,0.58 0.14,0.18 0.21,0.43 0.21,0.74 0,0.52 -0.15,0.91 -0.46,1.2 -0.32,0.3 -0.86,0.45 -1.63,0.45 -0.51,0 -0.92,-0.08 -1.22,-0.24 -0.3,-0.16 -0.52,-0.36 -0.67,-0.58 -0.15,-0.24 -0.24,-0.47 -0.27,-0.69 -0.02,-0.18 -0.08,-0.34 -0.19,-0.48 -0.15,-0.19 -0.36,-0.29 -0.61,-0.29 h -0.28 c -0.23,0 -0.44,0.1 -0.59,0.28 -0.13,0.16 -0.2,0.35 -0.2,0.57 0.02,0.59 0.19,1.15 0.51,1.67 0.32,0.52 0.78,0.95 1.38,1.28 0.59,0.32 1.31,0.49 2.13,0.49 0.82,0 1.48,-0.14 2.06,-0.42 0.6,-0.29 1.07,-0.71 1.4,-1.26 0.33,-0.54 0.49,-1.2 0.49,-1.95 0,-0.69 -0.13,-1.27 -0.4,-1.72 -0.26,-0.45 -0.66,-0.83 -1.19,-1.14 z"
               style="fill:#c4a214"
               id="path14" />
            <path
               d="m 73.23,108.56 h -2.95 c -0.24,0 -0.46,0.1 -0.6,0.28 -0.13,0.16 -0.2,0.36 -0.2,0.6 v 0.23 c 0,0.22 0.06,0.42 0.19,0.58 0.15,0.19 0.37,0.3 0.61,0.3 h 1.9 v 0.33 c 0,0.71 -0.11,1.29 -0.32,1.72 -0.21,0.42 -0.47,0.72 -0.82,0.92 -0.36,0.2 -0.76,0.3 -1.21,0.3 -0.68,0 -1.21,-0.21 -1.63,-0.65 -0.42,-0.44 -0.65,-1.22 -0.68,-2.31 -0.03,-0.97 -0.03,-1.95 0,-2.92 0.03,-1.1 0.26,-1.88 0.68,-2.31 0.42,-0.43 0.95,-0.64 1.63,-0.64 0.46,0 0.84,0.08 1.13,0.24 0.3,0.17 0.53,0.37 0.7,0.62 0.18,0.26 0.31,0.54 0.39,0.83 0.05,0.18 0.11,0.31 0.19,0.41 0.13,0.17 0.34,0.27 0.58,0.27 h 0.3 c 0.23,0 0.44,-0.09 0.59,-0.25 0.11,-0.11 0.23,-0.32 0.2,-0.59 -0.01,-0.29 -0.1,-0.62 -0.26,-1.02 -0.16,-0.38 -0.4,-0.77 -0.72,-1.14 -0.33,-0.38 -0.75,-0.71 -1.26,-0.96 -0.52,-0.26 -1.14,-0.39 -1.85,-0.39 -0.88,0 -1.64,0.21 -2.26,0.63 -0.62,0.42 -1.09,1 -1.41,1.74 -0.3,0.71 -0.47,1.53 -0.5,2.46 0,0.5 -0.01,1.02 -0.01,1.57 0,0.55 0,1.07 0.01,1.57 0.03,0.91 0.2,1.73 0.5,2.44 0.32,0.74 0.79,1.33 1.4,1.75 0.62,0.42 1.38,0.64 2.27,0.64 0.89,0 1.66,-0.22 2.3,-0.64 0.63,-0.42 1.12,-1.02 1.45,-1.77 0.31,-0.73 0.47,-1.57 0.47,-2.51 v -1.44 c 0,-0.24 -0.07,-0.44 -0.2,-0.6 -0.15,-0.18 -0.37,-0.28 -0.62,-0.28 z"
               style="fill:#c4a214"
               id="path15" />
            <path
               d="m 82.31,110.94 h -0.28 c -0.2,0 -0.38,0.07 -0.53,0.2 -0.14,0.13 -0.23,0.32 -0.27,0.55 -0.15,0.84 -0.42,1.41 -0.79,1.69 -0.4,0.3 -0.9,0.44 -1.53,0.44 -0.69,0 -1.22,-0.22 -1.61,-0.67 -0.41,-0.47 -0.64,-1.27 -0.67,-2.38 -0.03,-0.92 -0.03,-1.84 0,-2.72 0.03,-1.11 0.26,-1.91 0.67,-2.38 0.39,-0.45 0.92,-0.67 1.61,-0.67 0.63,0 1.13,0.14 1.52,0.44 0.38,0.28 0.64,0.85 0.79,1.67 0.04,0.25 0.12,0.44 0.27,0.57 0.15,0.13 0.33,0.2 0.53,0.2 h 0.28 c 0.22,0 0.42,-0.08 0.57,-0.24 0.16,-0.16 0.24,-0.39 0.22,-0.61 -0.02,-0.44 -0.11,-0.89 -0.27,-1.34 -0.16,-0.46 -0.41,-0.9 -0.73,-1.3 -0.33,-0.41 -0.77,-0.75 -1.3,-1 -0.52,-0.25 -1.16,-0.38 -1.88,-0.38 -0.94,0 -1.73,0.22 -2.34,0.67 -0.61,0.44 -1.06,1.05 -1.35,1.81 -0.28,0.72 -0.43,1.55 -0.46,2.45 0,0.47 -0.01,0.97 -0.01,1.49 0,0.52 0,1 0.01,1.46 0.03,0.9 0.18,1.73 0.46,2.44 0.29,0.75 0.74,1.36 1.35,1.8 0.61,0.45 1.4,0.68 2.34,0.68 0.72,0 1.36,-0.13 1.88,-0.38 0.52,-0.25 0.96,-0.58 1.3,-1 0.32,-0.4 0.57,-0.83 0.73,-1.3 0.16,-0.46 0.25,-0.91 0.27,-1.32 0.02,-0.24 -0.06,-0.47 -0.22,-0.64 -0.15,-0.15 -0.35,-0.24 -0.57,-0.24 z"
               style="fill:#c4a214"
               id="path16" />
          </g>
        </g>
      </g>
      <g
         id="g24">
        <g
           id="g20">
          <path
             d="m 19.32,51.21 17.2,4.85 c 1.02,0.29 1.67,1.3 1.51,2.35 l -4.35,27.77 c -0.19,1.25 -1.43,2.04 -2.65,1.7 l -17.2,-4.85 c -1.02,-0.29 -1.67,-1.3 -1.51,-2.35 l 4.35,-27.77 c 0.19,-1.25 1.43,-2.04 2.65,-1.7 z"
             style="opacity:0;isolation:isolate;fill:#56480d"
             id="path18" />
          <path
             d="m 37.06,54.14 -17.2,-4.85 v 0 c -0.37,-0.1 -0.74,-0.15 -1.11,-0.15 -0.78,0 -1.55,0.22 -2.22,0.65 -0.99,0.63 -1.66,1.66 -1.84,2.82 l -4.35,27.77 c -0.32,2.05 0.94,4.02 2.94,4.58 l 17.2,4.85 c 0.37,0.1 0.74,0.15 1.11,0.15 0.78,0 1.55,-0.22 2.22,-0.65 0.99,-0.63 1.66,-1.66 1.84,-2.82 L 40,58.72 C 40.32,56.67 39.06,54.7 37.06,54.14 Z M 31.7,85.87 31.57,85.95 14.37,81.1 C 14.32,81.09 14.29,81.04 14.3,80.99 l 4.39,-27.84 c 0,0 0.04,-0.02 0.05,-0.02 0.01,0 0.02,0 0.03,0 l 17.2,4.85 c 0,0 0.08,0.06 0.07,0.11 l -4.35,27.77 z"
             style="isolation:isolate;fill:#c4a214"
             id="path19" />
          <path
             d="m 33.1,107.62 c -0.16,-2.25 -0.14,-4.38 -0.04,-6.29 0.2,-3.64 0.73,-6.48 1.01,-7.77 0.67,-0.21 1.31,-0.5 1.91,-0.89 1.95,-1.25 3.27,-3.28 3.63,-5.57 l 4.35,-27.77 c 0.63,-4.05 -1.86,-7.94 -5.81,-9.05 l -17.2,-4.85 c -0.72,-0.2 -1.45,-0.3 -2.2,-0.3 v 0 c -1.56,0 -3.07,0.44 -4.38,1.28 -1.95,1.25 -3.27,3.28 -3.63,5.57 L 6.39,79.75 c -0.63,4.05 1.86,7.94 5.8,9.05 l 0.78,0.22 c -0.29,1.31 -0.7,3.35 -1.04,5.81 -0.26,1.84 -0.47,3.91 -0.57,6.1 0,0.13 -0.02,0.25 -0.02,0.38 1.27,2.37 2.68,4.66 4.21,6.85 -0.23,-1.99 -0.28,-4.03 -0.23,-6.01 0.06,-2.17 0.25,-4.26 0.5,-6.12 0.32,-2.48 0.73,-4.57 1.02,-5.91 l 12.56,3.54 c 0.19,0.05 0.38,0.08 0.57,0.12 -0.26,1.46 -0.58,3.68 -0.75,6.38 -0.12,1.88 -0.16,4.01 -0.06,6.26 0.21,4.76 1.07,10.11 3.28,15.15 1.42,3.24 3.89,5.9 7.03,7.53 3.1,1.61 6.34,2.97 9.7,4.08 C 37.21,127.69 33.72,116.74 33.09,107.63 Z M 13.29,84.95 c -2,-0.56 -3.26,-2.53 -2.94,-4.58 L 14.7,52.6 c 0.18,-1.16 0.85,-2.19 1.84,-2.82 0.67,-0.43 1.44,-0.65 2.22,-0.65 0.37,0 0.75,0.05 1.11,0.15 v 0 c 0,0 17.2,4.85 17.2,4.85 2,0.56 3.26,2.53 2.94,4.58 l -4.35,27.77 c -0.18,1.16 -0.85,2.19 -1.84,2.82 -0.67,0.43 -1.44,0.65 -2.22,0.65 -0.37,0 -0.75,-0.05 -1.11,-0.15 z"
             id="path20" />
        </g>
        <g
           id="g23">
          <path
             d="m 120.68,51.21 -17.2,4.85 c -1.02,0.29 -1.67,1.3 -1.51,2.35 l 4.35,27.77 c 0.19,1.25 1.43,2.04 2.65,1.7 l 17.2,-4.85 c 1.02,-0.29 1.67,-1.3 1.51,-2.35 l -4.35,-27.77 c -0.19,-1.25 -1.43,-2.04 -2.65,-1.7 z"
             style="opacity:0.5;isolation:isolate;fill:#826c0d"
             id="path21" />
          <path
             d="m 100,58.72 4.35,27.77 c 0.18,1.16 0.85,2.19 1.84,2.82 0.67,0.43 1.44,0.65 2.22,0.65 0.37,0 0.75,-0.05 1.11,-0.15 l 17.2,-4.85 c 2,-0.56 3.26,-2.53 2.94,-4.58 l -4.35,-27.77 c -0.18,-1.16 -0.85,-2.19 -1.84,-2.82 -0.67,-0.43 -1.44,-0.65 -2.22,-0.65 -0.37,0 -0.75,0.05 -1.11,0.15 v 0 c 0,0 -17.2,4.85 -17.2,4.85 -2,0.56 -3.26,2.53 -2.94,4.58 z m 3.95,-0.62 c 0,-0.05 0.02,-0.1 0.07,-0.11 l 17.2,-4.85 c 0,0 0.02,0 0.03,0 0.01,0 0.03,0 0.05,0.02 L 125.69,81 c 0,0.05 -0.02,0.1 -0.07,0.11 l -17.2,4.85 -0.13,-0.08 -4.35,-27.77 z"
             style="isolation:isolate;fill:#c4a214"
             id="path22" />
          <path
             d="m 90.82,133.17 c 3.36,-1.11 6.6,-2.48 9.7,-4.08 3.14,-1.63 5.61,-4.28 7.03,-7.53 2.21,-5.05 3.07,-10.4 3.28,-15.15 0.1,-2.25 0.06,-4.38 -0.06,-6.26 -0.17,-2.7 -0.49,-4.92 -0.75,-6.38 0.19,-0.04 0.38,-0.07 0.57,-0.12 l 12.56,-3.54 c 0.29,1.35 0.7,3.44 1.02,5.91 0.24,1.87 0.43,3.96 0.5,6.12 0.06,1.98 0,4.02 -0.23,6.01 1.54,-2.19 2.94,-4.47 4.21,-6.85 0,-0.13 -0.02,-0.26 -0.02,-0.38 -0.1,-2.19 -0.32,-4.26 -0.57,-6.1 -0.34,-2.45 -0.75,-4.5 -1.04,-5.81 l 0.78,-0.22 c 3.94,-1.11 6.44,-5 5.8,-9.05 l -4.35,-27.77 c -0.36,-2.29 -1.68,-4.32 -3.63,-5.57 -1.31,-0.84 -2.82,-1.28 -4.38,-1.28 v 0 c -0.74,0 -1.48,0.1 -2.2,0.3 l -17.2,4.85 c -3.94,1.11 -6.44,5 -5.81,9.05 l 4.35,27.77 c 0.36,2.29 1.68,4.32 3.63,5.57 0.6,0.38 1.24,0.67 1.91,0.89 0.28,1.29 0.8,4.13 1.01,7.77 0.11,1.91 0.12,4.04 -0.04,6.29 -0.63,9.11 -4.12,20.06 -16.08,25.55 z M 109.51,89.8 c -0.37,0.1 -0.74,0.15 -1.11,0.15 -0.78,0 -1.55,-0.22 -2.22,-0.65 -0.99,-0.63 -1.66,-1.66 -1.84,-2.82 L 99.99,58.71 c -0.32,-2.05 0.94,-4.02 2.94,-4.58 l 17.2,-4.85 v 0 c 0.37,-0.1 0.74,-0.15 1.11,-0.15 0.78,0 1.55,0.22 2.22,0.65 0.99,0.63 1.66,1.66 1.84,2.82 l 4.35,27.77 c 0.32,2.05 -0.94,4.02 -2.94,4.58 z"
             id="path23" />
        </g>
      </g>
      <path
         d="M 70,58.88 C 118.05,55 127.63,76.56 128.88,100.9 133.74,91.67 136.5,81.16 136.5,70 136.5,33.27 106.73,3.5 70,3.5 33.27,3.5 3.5,33.27 3.5,70 3.5,81.16 6.26,91.67 11.12,100.9 12.38,76.57 21.95,55 70,58.88 Z"
         style="isolation:isolate"
         id="path24" />
      <path
         d="m 30.49,89.8 c 0.37,0.1 0.74,0.15 1.11,0.15 0.78,0 1.55,-0.22 2.22,-0.65 0.99,-0.63 1.66,-1.66 1.84,-2.82 l 4.35,-27.77 c 0.32,-2.05 -0.94,-4.02 -2.94,-4.58 l -17.2,-4.85 v 0 c -0.37,-0.1 -0.74,-0.15 -1.11,-0.15 -0.78,0 -1.55,0.22 -2.22,0.65 -0.99,0.63 -1.66,1.66 -1.84,2.82 l -4.35,27.77 c -0.32,2.05 0.94,4.02 2.94,4.58 z"
         style="fill:none"
         id="path25" />
      <path
         d="M 29.4,93.65 16.84,90.11 c -0.29,1.35 -0.7,3.44 -1.02,5.91 l 13.39,4.12 c 0.17,-2.7 0.49,-4.92 0.75,-6.38 -0.19,-0.04 -0.38,-0.07 -0.57,-0.12 z"
         style="fill:none"
         id="path26" />
      <path
         d="m 51.32,113.23 -4.07,-1.25 c 0.36,2.71 1.2,5.28 2.42,7.61 3.84,7.31 11.5,12.29 20.33,12.29 8.83,0 16.49,-4.99 20.33,-12.29 1.68,-3.19 2.63,-6.82 2.63,-10.67 0,-12.68 -10.28,-22.96 -22.96,-22.96 -11.59,0 -21.17,8.59 -22.73,19.75 l 5.81,1.79 z"
         style="fill:none"
         id="path27" />
    </g>
  </g>
</svg>
