<?xml version="1.0" encoding="UTF-8" standalone="no"?>
<svg
   width="114.53989"
   height="178.03706"
   viewBox="0 0 114.53989 178.03706"
   fill="none"
   version="1.1"
   id="svg26"
   sodipodi:docname="player-accessory-outfitFireball.svg"
   xml:space="preserve"
   inkscape:export-filename="player-accessory-outfitSGC.svg"
   inkscape:export-xdpi="96"
   inkscape:export-ydpi="96"
   inkscape:version="1.4.2 (ebf0e940d0, 2025-05-08)"
   xmlns:inkscape="http://www.inkscape.org/namespaces/inkscape"
   xmlns:sodipodi="http://sodipodi.sourceforge.net/DTD/sodipodi-0.dtd"
   xmlns="http://www.w3.org/2000/svg"
   xmlns:svg="http://www.w3.org/2000/svg"><sodipodi:namedview
     id="namedview26"
     pagecolor="#ffffff"
     bordercolor="#000000"
     borderopacity="0.25"
     inkscape:showpageshadow="2"
     inkscape:pageopacity="0.0"
     inkscape:pagecheckerboard="0"
     inkscape:deskcolor="#d1d1d1"
     inkscape:zoom="1.65"
     inkscape:cx="70"
     inkscape:cy="113.63636"
     inkscape:window-width="1536"
     inkscape:window-height="836"
     inkscape:window-x="0"
     inkscape:window-y="0"
     inkscape:window-maximized="1"
     inkscape:current-layer="svg26"><inkscape:page
       x="0"
       y="0"
       width="114.53989"
       height="178.03706"
       id="page2"
       margin="0"
       bleed="0" /></sodipodi:namedview><defs
     id="defs26" /><g
     id="g26"
     transform="matrix(0,-1.2892828,1.2892828,0,1.7559449e-7,179.27477)"
     inkscape:export-filename="player-accessory-outfitSGC.svg"
     inkscape:export-xdpi="96"
     inkscape:export-ydpi="96"><g
       id="Layer_1"
       data-name="Layer 1"><g
         id="g7"><g
           id="g2"><path
             d="M 27.26,2.5 C 15.48,2.5 5.35,11.29 3.7,22.94 3.54,24.07 3.46,25.2 3.46,26.31 c 0,0.99 0.06,1.97 0.2,2.99 l 0.05,0.35 0.2,0.29 c 1.2,1.77 3.11,3.12 5.39,3.79 l 2.33,0.68 -0.43,-2.38 c -0.1,-0.55 -0.15,-1.07 -0.15,-1.56 0,-3.19 1.59,-6 4.26,-7.52 1.36,-0.77 2.93,-1.18 4.55,-1.18 6.89,0 14.43,9.07 15.51,14.77 l 0.95,5.02 1.91,-4.74 C 41,29.94 46.04,24.05 52.41,20.22 l 1.2,-0.72 -0.64,-1.25 C 48.36,9.28 37.31,2.51 27.26,2.51 Z"
             style="fill:#171717"
             id="path1-3" /><path
             d="M 136.3,22.94 C 134.65,11.29 124.52,2.5 112.74,2.5 102.69,2.5 91.63,9.26 87.03,18.24 l -0.64,1.25 1.2,0.72 c 6.37,3.82 11.4,9.72 14.17,16.6 l 1.91,4.74 0.96,-5.02 c 1.08,-5.7 8.62,-14.77 15.51,-14.77 1.62,0 3.2,0.41 4.55,1.18 2.67,1.53 4.27,4.34 4.27,7.52 0,0.49 -0.05,1.01 -0.15,1.56 l -0.42,2.38 2.32,-0.68 c 2.28,-0.67 4.19,-2.01 5.39,-3.78 l 0.2,-0.29 0.05,-0.35 c 0.13,-1.02 0.2,-2 0.2,-2.99 0,-1.11 -0.08,-2.24 -0.24,-3.37 z"
             style="fill:#171717"
             id="path2-6" /></g><g
           id="g4"><path
             d="M 10.7,32.11 10.59,31.5 10,31.33 C 8.3,30.83 6.84,29.82 5.98,28.54 l -2.37,-3.5 0.55,4.19 C 5.1,36.4 9.55,40.98 17.39,42.85 l 0.63,-1.89 c -3.83,-1.64 -6.63,-5.03 -7.31,-8.85 z"
             style="fill:#090909"
             id="path3-7" /><path
             d="m 134.03,28.54 c -0.86,1.27 -2.33,2.29 -4.02,2.79 l -0.59,0.17 -0.11,0.61 c -0.68,3.82 -3.48,7.21 -7.31,8.85 l 0.63,1.89 c 7.84,-1.87 12.3,-6.45 13.23,-13.62 l 0.55,-4.19 -2.37,3.5 z"
             style="fill:#090909"
             id="path4-5" /></g><g
           id="g6"><path
             d="M 55.2,17.09 C 50.11,7.19 38.36,0 27.26,0 12.76,0 0.96,11.8 0.96,26.31 c 0,3.38 0.62,6.4 1.83,9.02 2.58,5.6 8.49,9.02 14.65,8.69 2.94,-0.16 3.91,-1.12 4.07,-1.29 -6.14,-4.88 -7.55,-9.29 -7.87,-11.23 0,-0.02 0,-0.05 -0.01,-0.07 -0.1,-0.62 -0.08,-0.97 -0.08,-0.97 0,-3.6 2.66,-6.21 6.32,-6.21 5.48,0 12.14,7.95 13.05,12.74 0.33,1.74 1.77,3.06 3.54,3.23 0.13,0.01 0.26,0.02 0.39,0.02 1.62,0 3.09,-0.98 3.71,-2.51 2.55,-6.34 7.18,-11.78 13.04,-15.32 1.82,-1.1 2.58,-3.42 1.6,-5.32 z M 36.84,36.24 c -1.16,-6.1 -9.02,-15.99 -16.98,-15.99 -5.83,0 -10.32,4.38 -10.32,10.21 0,4.33 2.88,9.19 8.07,11.42 C 10,40.07 4.95,35.42 4.95,26.31 c 0,-3.47 0.79,-6.76 2.21,-9.69 0.06,2.13 0.63,4.2 1.96,5.95 0.1,0.13 0.28,-0.03 0.19,-0.15 -1.54,-2.64 -1.48,-5.67 -0.6,-8.5 4,-5.98 10.81,-9.91 18.55,-9.91 0.15,0 0.31,0.02 0.47,0.02 -5.29,1.96 -8.53,6.8 -8.12,13.97 0,0.16 0.26,0.13 0.24,-0.02 C 20,9.01 25.58,4.23 33.74,4.94 36.42,5.69 39.06,6.85 41.5,8.35 35.9,9.18 31,13.24 29.01,18.58 c -0.06,0.15 0.17,0.23 0.22,0.09 2.79,-5.82 8.5,-9.13 14.65,-8.68 2.19,1.65 4.14,3.57 5.72,5.69 -6.33,1.02 -11.34,6.4 -13.37,12.42 -0.06,0.15 0.18,0.22 0.23,0.08 2.52,-5.73 7.95,-10.76 14.36,-10.72 0.29,0.48 0.57,0.96 0.82,1.45 C 45,22.89 39.77,28.97 36.85,36.23 Z"
             style="fill:#020202"
             id="path5-3" /><path
             d="m 86.41,22.41 c 5.86,3.55 10.48,8.98 13.04,15.32 0.61,1.52 2.09,2.51 3.71,2.51 0.13,0 0.26,0 0.39,-0.02 1.77,-0.17 3.21,-1.49 3.54,-3.23 0.91,-4.79 7.57,-12.74 13.05,-12.74 3.66,0 6.32,2.61 6.32,6.21 0,0 0.02,0.35 -0.08,0.97 0,0.02 0,0.05 -0.01,0.07 -0.32,1.94 -1.73,6.35 -7.87,11.23 0.15,0.17 1.13,1.13 4.07,1.29 6.16,0.34 12.07,-3.08 14.65,-8.69 1.21,-2.62 1.83,-5.64 1.83,-9.02 C 139.04,11.8 127.24,0 112.74,0 101.64,0 89.89,7.19 84.81,17.09 c -0.97,1.9 -0.22,4.21 1.6,5.32 z m 1.95,-3.49 c 0.25,-0.49 0.53,-0.98 0.82,-1.45 6.41,-0.04 11.84,4.99 14.36,10.72 0.05,0.14 0.28,0.07 0.23,-0.08 -2.04,-6.02 -7.04,-11.4 -13.37,-12.42 1.58,-2.12 3.53,-4.04 5.72,-5.69 6.16,-0.45 11.86,2.85 14.65,8.68 0.05,0.14 0.29,0.06 0.22,-0.09 C 109,13.25 104.1,9.18 98.5,8.36 c 2.44,-1.51 5.08,-2.67 7.76,-3.41 8.16,-0.71 13.74,4.07 13.89,13.04 -0.02,0.15 0.23,0.17 0.24,0.02 0.4,-7.17 -2.83,-12.02 -8.12,-13.97 0.16,0 0.31,-0.02 0.47,-0.02 7.73,0 14.55,3.94 18.55,9.91 0.88,2.83 0.94,5.86 -0.6,8.5 -0.1,0.12 0.09,0.28 0.19,0.15 1.33,-1.75 1.9,-3.82 1.96,-5.95 1.42,2.93 2.21,6.22 2.21,9.69 0,9.11 -5.05,13.76 -12.66,15.57 5.19,-2.22 8.07,-7.09 8.07,-11.42 0,-5.83 -4.49,-10.21 -10.32,-10.21 -7.96,0 -15.82,9.89 -16.98,15.99 C 100.24,28.99 95,22.91 88.37,18.93 Z"
             style="fill:#020202"
             id="path6-5" /></g></g><path
         d="m 70,11.86 c -20.53,0 -37.24,16.71 -37.24,37.24 0,4.34 0.74,8.59 2.21,12.65 5.31,14.71 19.39,24.59 35.03,24.59 15.64,0 29.72,-9.88 35.03,-24.59 1.47,-4.06 2.21,-8.31 2.21,-12.65 C 107.24,28.57 90.53,11.86 70,11.86 Z"
         style="fill:#040404"
         id="path7-6" /><path
         d="M 70,78.56 C 55.87,78.56 43.46,71.65 36.38,61.24 41.35,75 54.52,84.84 70,84.84 85.48,84.84 98.65,75 103.62,61.24 96.54,71.65 84.13,78.56 70,78.56 Z"
         style="isolation:isolate;fill:#c4a214"
         id="path8-2" /><g
         id="g11"><path
           d="m 61.97,30.68 -3.08,-5.43 -3.03,6.24 c 2.01,-0.35 4.05,-0.62 6.12,-0.81 v 0 z"
           style="isolation:isolate;fill:#c4a214"
           id="path9-9" /><path
           d="m 70,30.28 c 1.36,0 2.7,0.04 4.04,0.11 L 70,23.19 65.96,30.39 C 67.3,30.33 68.64,30.28 70,30.28 Z"
           style="isolation:isolate;fill:#c4a214"
           id="path10" /><path
           d="m 84.15,31.5 -3.04,-6.25 -3.08,5.43 c 2.07,0.2 4.11,0.47 6.12,0.81 v 0 z"
           style="isolation:isolate;fill:#c4a214"
           id="path11" /></g><g
         style="isolation:isolate"
         id="g12"><path
           d="m 70,13.36 c 19.74,0 35.74,16 35.74,35.74 0,4.26 -0.75,8.35 -2.12,12.14 C 98.65,75 85.48,84.84 70,84.84 54.52,84.84 41.35,75 36.38,61.24 35.01,57.45 34.26,53.36 34.26,49.1 34.26,29.36 50.26,13.36 70,13.36 m 0,-4 c -21.91,0 -39.74,17.83 -39.74,39.74 0,4.63 0.79,9.17 2.36,13.5 5.67,15.69 20.69,26.24 37.38,26.24 16.69,0 31.71,-10.55 37.38,-26.24 1.56,-4.33 2.36,-8.87 2.36,-13.5 C 109.74,27.19 91.91,9.36 70,9.36 Z"
           id="path12" /></g><g
         style="isolation:isolate"
         id="g14"><path
           d="m 120.01,69.1 c -0.34,0 -0.68,-0.12 -0.96,-0.35 l -4.5,-3.78 c -0.3,-0.26 -0.5,-0.62 -0.53,-1.02 -0.04,-0.4 0.09,-0.79 0.34,-1.1 l 7.31,-8.71 c 0.3,-0.35 0.72,-0.54 1.15,-0.54 0.34,0 0.68,0.12 0.96,0.35 l 4.5,3.78 c 0.3,0.26 0.5,0.62 0.53,1.02 0.04,0.4 -0.09,0.79 -0.34,1.1 l -7.31,8.71 c -0.3,0.35 -0.72,0.54 -1.15,0.54 z"
           style="fill:#171717"
           id="path13" /><path
           d="m 122.82,55.11 4.5,3.78 -7.31,8.71 -4.5,-3.78 7.31,-8.71 m 0,-3 c -0.09,0 -0.17,0 -0.26,0.01 -0.79,0.07 -1.53,0.45 -2.04,1.06 l -7.31,8.71 c -0.51,0.61 -0.76,1.4 -0.69,2.19 0.07,0.79 0.45,1.53 1.06,2.04 l 4.5,3.78 c 0.54,0.46 1.23,0.7 1.93,0.7 0.09,0 0.17,0 0.26,-0.01 0.79,-0.07 1.53,-0.45 2.04,-1.06 l 7.31,-8.71 c 1.07,-1.27 0.9,-3.16 -0.37,-4.23 l -4.5,-3.78 c -0.54,-0.46 -1.23,-0.7 -1.93,-0.7 z"
           id="path14" /></g><g
         style="isolation:isolate"
         id="g16"><path
           d="m 128.87,63.28 c -0.35,0 -0.69,-0.12 -0.96,-0.35 l -9.21,-7.72 c -0.38,-0.32 -0.58,-0.81 -0.53,-1.3 0.05,-0.49 0.35,-0.93 0.79,-1.17 l 14.2,-7.58 c 0.22,-0.12 0.46,-0.18 0.71,-0.18 0.35,0 0.69,0.12 0.96,0.35 0.47,0.39 0.65,1.03 0.46,1.61 l -5,15.3 c -0.15,0.47 -0.53,0.84 -1.01,0.98 -0.14,0.04 -0.27,0.06 -0.41,0.06 z"
           style="fill:#c4a214"
           id="path15" /><path
           d="m 133.87,46.48 v 0 m 0,0 -5,15.3 -4.6,-3.86 -4.6,-3.86 14.2,-7.58 m -0.01,-3 c 0,0 -0.1,0 -0.14,0 -0.48,0.02 -0.93,0.16 -1.32,0.38 l -14.15,7.55 c -0.88,0.47 -1.47,1.34 -1.57,2.34 -0.1,0.99 0.29,1.97 1.06,2.61 l 4.6,3.86 4.6,3.86 c 0.55,0.46 1.23,0.7 1.93,0.7 0.28,0 0.55,-0.04 0.82,-0.12 0.96,-0.27 1.72,-1.01 2.03,-1.95 l 4.96,-15.18 c 0.12,-0.33 0.19,-0.68 0.19,-1.06 0,-1.65 -1.33,-2.99 -2.98,-3 0,0 -0.01,0 -0.02,0 v 0 z m 0.01,6 z"
           id="path16" /></g></g></g></svg>
