<svg xmlns="http://www.w3.org/2000/svg" width="655" height="683" viewBox="0 0 655 683" version="1.1"><path d="M 502.200 143.200 C 501.540 143.860, 501 144.875, 501 145.455 C 501 146.036, 498.637 149.831, 495.750 153.888 C 488.369 164.260, 358.098 289.326, 356.262 287.803 C 355.335 287.033, 353.562 287.866, 349.560 290.953 C 346.568 293.262, 343.669 295.694, 343.118 296.358 C 342.390 297.234, 345.118 300.292, 353.086 307.532 C 359.119 313.015, 364.510 317.500, 365.067 317.500 C 366.661 317.500, 414 271.835, 414 270.297 C 414 266.186, 420.136 259.230, 444.643 235.560 C 480.645 200.786, 479.658 201.691, 481.745 201.537 C 482.754 201.463, 488.921 195.902, 495.448 189.180 C 501.975 182.459, 508.379 176.692, 509.679 176.366 C 513.044 175.521, 517.883 169.352, 517.290 166.663 C 515.432 158.238, 511.575 149.103, 508.458 145.750 C 504.664 141.667, 504.002 141.398, 502.200 143.200 M 493.126 162.497 C 490.720 164.409, 461.754 192.806, 428.758 225.600 L 368.764 285.225 371.965 288.363 L 375.167 291.500 389.833 276.330 C 397.900 267.987, 406.150 260.337, 408.168 259.330 C 410.185 258.324, 423.539 246.127, 437.843 232.226 C 456.854 213.753, 464.027 206.154, 464.504 203.983 C 465.157 201.009, 479.921 186.381, 491.715 177.023 C 495.570 173.965, 497.096 172.003, 497.565 169.508 C 497.913 167.650, 499.039 165.370, 500.067 164.440 C 501.497 163.146, 501.700 162.308, 500.933 160.874 C 499.520 158.235, 498.121 158.526, 493.126 162.497 M 294 307.865 C 294 308.341, 290.512 310.231, 286.250 312.066 C 278.869 315.244, 277.233 316.631, 251.864 341.220 C 228.751 363.623, 224.749 367.949, 221.603 373.937 L 217.977 380.837 221.136 383.309 L 224.296 385.782 211.915 400.141 C 205.105 408.038, 195.151 419.559, 189.794 425.743 L 180.054 436.987 176.706 434.047 L 173.359 431.108 162.679 441.820 C 152.576 451.955, 152 452.754, 152 456.644 C 152 459.167, 151.391 461.261, 150.423 462.064 C 149.153 463.118, 148.979 464.549, 149.528 469.436 C 150.143 474.918, 153.134 482, 154.834 482 C 155.203 482, 190.819 446.684, 233.980 403.520 L 312.455 325.040 308.235 320.740 L 304.015 316.440 306.757 313.661 L 309.500 310.883 307.139 308.941 C 305.449 307.552, 303.247 307, 299.389 307 C 296.425 307, 294 307.389, 294 307.865 M 246.590 407.552 C 195.490 458.398, 153.218 500, 152.652 500 C 152.087 500, 147.509 504.036, 142.479 508.969 C 132.988 518.276, 125.301 522.968, 119.500 522.994 C 115.160 523.014, 111.024 525.898, 99.623 536.852 C 94.056 542.202, 77.575 558.047, 63 572.063 C 47.625 586.848, 32.722 600.235, 27.500 603.951 C 22.550 607.473, 18.301 610.511, 18.058 610.702 C 17.816 610.893, 26.168 619.701, 36.620 630.275 C 47.071 640.849, 58.825 653.069, 62.739 657.432 C 69.034 664.447, 70.047 665.206, 71.501 663.999 C 74.968 661.122, 77.364 654.679, 77.475 647.936 C 77.656 636.901, 80.279 632.956, 99.654 614.578 C 119.007 596.222, 123.698 593.337, 132.506 594.372 C 142.846 595.587, 148 592.811, 148 586.026 C 148 581.038, 145.606 569.657, 142.463 559.698 C 139.533 550.419, 139.421 546.847, 141.893 541.500 C 144.516 535.824, 149.107 530.478, 160 520.413 C 170.524 510.689, 172.080 509.194, 241 442.597 C 272.289 412.363, 290.920 395.077, 293.500 393.888 C 295.700 392.874, 298.992 392.034, 300.816 392.022 C 304.966 391.994, 307.174 390.849, 313.669 385.356 C 318.038 381.661, 319.006 380.200, 319.924 375.918 C 322.231 365.161, 325.532 360.381, 341.242 345.047 L 356.049 330.593 348.298 322.797 C 344.035 318.508, 340.311 315.023, 340.023 315.052 C 339.736 315.080, 297.691 356.705, 246.590 407.552 M 264.060 333.476 C 247.529 349.923, 247.500 349.960, 247.500 354.463 C 247.500 358.513, 247.987 359.461, 252.263 363.737 C 256.539 368.013, 257.487 368.500, 261.537 368.500 C 266.040 368.500, 266.077 368.471, 282.524 351.940 C 298.742 335.639, 299 335.311, 299 331.047 C 299 327.198, 298.458 326.172, 294.143 321.857 C 289.828 317.542, 288.802 317, 284.953 317 C 280.689 317, 280.361 317.258, 264.060 333.476 M 271.011 341.489 C 258.218 354.309, 257.636 355.065, 259.290 356.719 C 260.945 358.373, 261.709 357.782, 274.694 344.797 C 286.497 332.994, 288.179 330.921, 287.056 329.567 C 286.340 328.705, 285.466 328, 285.114 328 C 284.761 328, 278.415 334.070, 271.011 341.489 M 234.374 372.765 C 233.754 373.169, 229.830 380.025, 225.653 388 L 218.058 402.500 190.529 429.993 C 175.388 445.114, 163 458.187, 163 459.043 C 163 461.211, 165.015 463, 167.457 463 C 168.818 463, 179.033 453.457, 197.695 434.750 L 225.877 406.500 233.439 391.912 C 237.597 383.888, 241 376.833, 241 376.233 C 241 374.775, 238.153 371.996, 236.679 372.015 C 236.030 372.024, 234.993 372.361, 234.374 372.765 M 287.379 375.211 C 285.679 377.020, 284.005 379.309, 283.658 380.298 C 283.160 381.715, 282.336 381.970, 279.763 381.503 C 276.604 380.929, 275.753 381.658, 253.009 404.454 C 231.920 425.591, 229.640 428.194, 230.713 429.912 C 231.982 431.945, 232.345 431.540, 219.514 442.436 C 215.591 445.768, 215.557 445.853, 217.383 447.871 L 219.238 449.920 222.619 447.341 C 224.479 445.923, 226 444.235, 226 443.590 C 226 442.944, 227.952 440.501, 230.337 438.160 C 234.144 434.424, 234.832 434.092, 235.960 435.451 C 236.667 436.303, 237.981 437, 238.880 437 C 240.555 437, 287 391.222, 287 389.571 C 287 389.069, 286.284 387.866, 285.409 386.899 C 283.930 385.265, 284.089 384.968, 287.659 382.700 C 292.765 379.456, 295.252 376.550, 294.827 374.324 C 294.238 371.235, 290.720 371.653, 287.379 375.211 M 203.504 375.991 C 202.586 377.768, 202.215 380.007, 202.590 381.504 C 203.370 384.610, 201.563 387, 198.434 387 C 195.723 387, 193 390.421, 193 393.826 C 193 396.497, 182.252 409.980, 176.234 414.859 L 172.500 417.885 175.746 421.169 C 179.621 425.090, 177.146 427.087, 196.938 404.069 C 209.388 389.590, 210.892 387.463, 209.592 386.164 C 208.293 384.864, 208.348 384.237, 210.059 380.884 C 211.127 378.792, 212 376.848, 212 376.566 C 212 376.040, 206.523 373, 205.575 373 C 205.287 373, 204.355 374.346, 203.504 375.991 M 198.364 392.493 C 198.018 393.396, 198.214 394.614, 198.800 395.200 C 200.324 396.724, 203.210 395.331, 202.812 393.265 C 202.369 390.963, 199.165 390.407, 198.364 392.493 M 218 483.001 C 205.446 495.099, 202.785 498.130, 204 498.953 C 204.825 499.512, 205.795 499.976, 206.157 499.985 C 206.518 499.993, 213.268 511.246, 221.157 524.992 C 232.355 544.505, 235.938 549.986, 237.500 549.992 C 238.600 549.996, 242.244 548.311, 245.598 546.248 C 255.709 540.029, 255.480 540.583, 250.157 535.205 C 245.375 530.373, 231.323 506.107, 228.980 498.633 C 228.294 496.443, 228.027 492.758, 228.365 490.133 C 229.737 479.475, 230.877 474.138, 232.418 471.159 C 233.316 469.421, 233.927 468.014, 233.776 468.032 C 233.624 468.050, 226.525 474.785, 218 483.001 M 180.750 484.080 C 178.051 485.652, 178.488 490.619, 181.500 492.592 C 183.816 494.109, 184.184 494.109, 186.500 492.592 C 192.483 488.671, 186.945 480.472, 180.750 484.080 M 100.180 540.768 C 97.913 542.290, 86.142 552.940, 74.021 564.434 C 48.471 588.665, 46.535 591.420, 46.585 603.464 C 46.606 608.544, 47.235 611.880, 48.846 615.463 C 51.692 621.796, 53.548 623.846, 58.500 626.119 C 67.371 630.193, 73.372 627.676, 87.850 613.806 C 116.749 586.122, 123.731 578.923, 125.513 574.972 C 127.324 570.956, 127.325 570.529, 125.572 560.168 C 123.499 547.924, 122.472 545.500, 117.516 541.148 C 112.654 536.879, 106.181 536.737, 100.180 540.768 M 64.059 645.941 C 61.587 648.413, 61.449 650.768, 63.595 653.832 C 65.928 657.162, 71.856 656.544, 73.969 652.750 C 75.344 650.281, 75.344 649.719, 73.969 647.250 C 71.962 643.645, 67.009 642.991, 64.059 645.941" stroke="none" fill="#f5f5f5" fill-rule="evenodd"/><path d="M 629.199 15.413 C 620.234 23.842, 610.966 31.732, 608.605 32.946 C 606.244 34.160, 602.742 37.257, 600.823 39.827 C 597.953 43.672, 596.773 44.500, 594.170 44.500 C 591.407 44.500, 589.606 42.980, 579.986 32.531 C 573.926 25.947, 568.246 20.158, 567.365 19.664 C 566.156 18.988, 564.754 19.775, 561.666 22.864 L 557.569 26.960 560.665 30.230 C 564.355 34.129, 564.363 34.144, 571.913 51.383 L 577.857 64.956 544.790 97.008 C 512.891 127.928, 511.649 129.006, 509.612 127.515 C 503.529 123.063, 503.997 122.891, 491.796 134.073 C 480.446 144.474, 478.997 146.262, 480.945 147.466 C 481.525 147.825, 482 148.514, 482 148.998 C 482 150.737, 358.082 269, 356.259 269 C 355.250 269, 352.913 270.261, 351.067 271.803 L 347.709 274.606 338.473 273.423 C 333.394 272.772, 327.047 271.519, 324.369 270.638 C 318.133 268.586, 293.280 262.921, 290 262.803 C 288.300 262.742, 279.822 268.076, 263.500 279.478 C 250.300 288.698, 238.938 296.948, 238.250 297.812 C 236.150 300.451, 236.832 303.778, 240.655 309.535 C 244.145 314.792, 247.357 316.863, 250.248 315.721 C 250.936 315.448, 262.218 307.095, 275.318 297.158 L 299.136 279.090 307.573 285.527 C 316.171 292.087, 319.487 293.629, 323.016 292.706 C 326.214 291.870, 325.440 295.181, 321.559 298.943 L 318.118 302.277 315.085 299.725 C 310.718 296.051, 305.516 294.543, 297.273 294.564 C 290.944 294.579, 289.702 294.897, 287.273 297.120 C 285.748 298.516, 281.086 301.114, 276.913 302.893 C 269.558 306.029, 268.459 306.996, 241.147 334.370 L 212.969 362.612 206.776 359.303 C 201.097 356.269, 200.496 356.138, 199.541 357.718 C 198.969 358.666, 196.371 363.424, 193.769 368.290 C 191.167 373.156, 187.461 378.980, 185.534 381.232 C 183.606 383.483, 181.758 386.771, 181.427 388.537 C 180.646 392.703, 172.567 402.474, 167.570 405.296 C 164.059 407.279, 163.380 408.353, 160.803 416 C 159.227 420.675, 158.163 425.423, 158.438 426.551 C 158.822 428.126, 156.745 430.786, 149.469 438.031 C 140.669 446.794, 139.998 447.745, 139.978 451.480 C 139.965 453.754, 139.191 456.494, 138.196 457.787 C 136.643 459.804, 136.537 461.220, 137.294 469.787 C 137.979 477.550, 138.658 480.279, 140.675 483.379 L 143.199 487.258 134.850 495.703 C 126.074 504.580, 120.925 507.994, 116.290 508.010 C 108.105 508.038, 102.875 512.393, 51.500 561.951 C 34.357 578.488, 22.984 588.575, 15.311 594.048 C 2.016 603.532, -0 605.811, 0 611.357 C 0 615.265, 0.487 615.903, 11.147 625.972 C 24.445 638.531, 51.006 666.608, 58.637 676.172 C 63.853 682.709, 64.269 683, 68.393 683 C 73.710 683, 79.096 679.378, 84.202 672.368 C 90.500 663.724, 92.327 659.155, 92.660 651.221 C 92.829 647.218, 93.536 642.877, 94.233 641.575 C 95.459 639.285, 123.716 612.345, 126.643 610.675 C 127.439 610.221, 132.007 609.720, 136.795 609.561 C 149.712 609.132, 157.375 604.928, 161.264 596.137 C 164.668 588.440, 163.157 574.247, 156.919 555.316 C 155.039 549.612, 155.001 548.899, 156.429 546.137 C 158.080 542.944, 193.815 508.994, 195.500 509.017 C 197.631 509.046, 199.053 511.137, 210.452 531 C 216.923 542.275, 223.326 553.227, 224.681 555.338 C 227.853 560.279, 234.627 563.479, 239.852 562.503 C 244.333 561.667, 258.610 553.179, 262.878 548.814 C 268.662 542.897, 268.951 536.040, 263.629 530.973 C 261.908 529.335, 259.375 526.919, 258 525.604 C 254.881 522.622, 241.515 498.627, 240.567 494.309 C 240.179 492.538, 240.331 490.249, 240.910 489.168 C 241.888 487.341, 242.217 487.309, 246.126 488.656 C 254.512 491.545, 258.339 489.015, 267.064 474.817 C 271.823 467.072, 273.440 463.473, 273.788 459.853 C 274.070 456.922, 274.969 454.433, 276.123 453.389 C 277.950 451.735, 278.646 447.979, 277.363 446.696 C 277.012 446.346, 275.412 446.995, 273.805 448.139 C 270.316 450.623, 269.179 450.010, 271.398 446.842 C 272.279 445.584, 273 443.631, 273 442.502 C 273 441.278, 276.014 437.456, 280.474 433.025 C 287.617 425.931, 287.873 425.518, 286.252 423.726 C 284.631 421.935, 284.892 421.523, 292.152 414.426 C 298.395 408.322, 300.317 407, 302.946 407 L 306.145 407 304.073 409.635 C 301.501 412.905, 301.319 419.568, 303.707 423.027 C 306.566 427.168, 355.924 479.889, 357.963 480.980 C 360.911 482.558, 367.221 482.175, 370.091 480.243 C 371.515 479.285, 380.413 471.319, 389.863 462.542 C 408.866 444.892, 410.482 442.484, 407.736 435.910 C 406.933 433.989, 394.290 419.519, 379.641 403.754 C 356.886 379.268, 352.496 374.996, 349.509 374.436 C 344.732 373.540, 341.663 374.479, 337.541 378.098 L 334.045 381.167 335.447 376.509 C 337.400 370.020, 341.003 365.842, 360.807 347.096 C 372.963 335.588, 377.799 330.399, 377.057 329.657 C 376.475 329.075, 376 328.322, 376 327.981 C 376 327.641, 387.700 316.174, 402 302.500 C 424.996 280.509, 428 277.281, 428 274.556 C 428 271.315, 427.244 272.113, 468.737 231.527 L 480.974 219.558 485.288 223.792 L 489.603 228.027 494.965 224.026 C 499.079 220.956, 500.637 220.284, 501.663 221.135 C 502.398 221.746, 503 222.849, 503 223.587 C 503 224.877, 505.600 226.805, 507.333 226.801 C 507.792 226.800, 528.133 243.351, 552.536 263.580 L 596.906 300.362 593.453 304.184 C 591.554 306.286, 590.007 308.342, 590.015 308.753 C 590.052 310.554, 591.755 311.758, 595.144 312.381 C 598.736 313.041, 598.928 312.902, 608.452 302.775 C 617.097 293.583, 618.055 292.194, 617.551 289.595 C 616.908 286.275, 615.293 284, 613.581 284 C 612.934 284, 610.690 285.757, 608.592 287.906 L 604.779 291.811 577.639 269.309 C 562.713 256.933, 550.345 246.063, 550.156 245.153 C 549.532 242.148, 542.754 236.001, 540.047 235.985 C 537.170 235.968, 515.999 219.145, 514.782 215.909 C 514.372 214.819, 513.085 213.983, 511.782 213.959 C 509.652 213.921, 509.725 213.726, 512.894 211.016 L 516.288 208.114 511.604 202.904 L 506.919 197.694 509.651 194.843 L 512.382 191.992 515.057 194.554 L 517.731 197.117 525.342 188.846 C 532.588 180.971, 532.882 180.469, 531.487 178.340 C 530.449 176.755, 530.346 175.904, 531.135 175.416 C 532.990 174.270, 531.279 163.220, 527.517 152.049 C 525.613 146.397, 523.589 141.210, 523.019 140.523 C 521.566 138.772, 587.172 74.572, 588.776 76.176 C 590.348 77.748, 607.234 62.313, 606.494 59.980 C 606.114 58.784, 607.490 57.294, 611.331 54.743 C 614.284 52.783, 617.780 49.757, 619.100 48.020 C 620.420 46.282, 629.031 36.905, 638.237 27.180 C 648.956 15.857, 654.978 8.740, 654.987 7.385 C 654.994 6.222, 654.067 4.084, 652.927 2.635 C 648.982 -2.381, 646.977 -1.301, 629.199 15.413 M 574.985 39.750 C 574.977 40.163, 576.622 44.458, 578.641 49.295 L 582.312 58.090 585.670 54.836 L 589.027 51.581 582.793 45.291 C 576.907 39.352, 575.019 38.013, 574.985 39.750 M 502.200 143.200 C 501.540 143.860, 501 144.875, 501 145.455 C 501 146.036, 498.637 149.831, 495.750 153.888 C 488.369 164.260, 358.098 289.326, 356.262 287.803 C 355.335 287.033, 353.562 287.866, 349.560 290.953 C 346.568 293.262, 343.669 295.694, 343.118 296.358 C 342.390 297.234, 345.118 300.292, 353.086 307.532 C 359.119 313.015, 364.510 317.500, 365.067 317.500 C 366.661 317.500, 414 271.835, 414 270.297 C 414 266.186, 420.136 259.230, 444.643 235.560 C 480.645 200.786, 479.658 201.691, 481.745 201.537 C 482.754 201.463, 488.921 195.902, 495.448 189.180 C 501.975 182.459, 508.379 176.692, 509.679 176.366 C 513.044 175.521, 517.883 169.352, 517.290 166.663 C 515.432 158.238, 511.575 149.103, 508.458 145.750 C 504.664 141.667, 504.002 141.398, 502.200 143.200 M 493.126 162.497 C 490.720 164.409, 461.754 192.806, 428.758 225.600 L 368.764 285.225 371.965 288.363 L 375.167 291.500 389.833 276.330 C 397.900 267.987, 406.150 260.337, 408.168 259.330 C 410.185 258.324, 423.539 246.127, 437.843 232.226 C 456.854 213.753, 464.027 206.154, 464.504 203.983 C 465.157 201.009, 479.921 186.381, 491.715 177.023 C 495.570 173.965, 497.096 172.003, 497.565 169.508 C 497.913 167.650, 499.039 165.370, 500.067 164.440 C 501.497 163.146, 501.700 162.308, 500.933 160.874 C 499.520 158.235, 498.121 158.526, 493.126 162.497 M 294 307.865 C 294 308.341, 290.512 310.231, 286.250 312.066 C 278.869 315.244, 277.233 316.631, 251.864 341.220 C 228.751 363.623, 224.749 367.949, 221.603 373.937 L 217.977 380.837 221.136 383.309 L 224.296 385.782 211.915 400.141 C 205.105 408.038, 195.151 419.559, 189.794 425.743 L 180.054 436.987 176.706 434.047 L 173.359 431.108 162.679 441.820 C 152.576 451.955, 152 452.754, 152 456.644 C 152 459.167, 151.391 461.261, 150.423 462.064 C 149.153 463.118, 148.979 464.549, 149.528 469.436 C 150.143 474.918, 153.134 482, 154.834 482 C 155.203 482, 190.819 446.684, 233.980 403.520 L 312.455 325.040 308.235 320.740 L 304.015 316.440 306.757 313.661 L 309.500 310.883 307.139 308.941 C 305.449 307.552, 303.247 307, 299.389 307 C 296.425 307, 294 307.389, 294 307.865 M 246.590 407.552 C 195.490 458.398, 153.218 500, 152.652 500 C 152.087 500, 147.509 504.036, 142.479 508.969 C 132.988 518.276, 125.301 522.968, 119.500 522.994 C 115.160 523.014, 111.024 525.898, 99.623 536.852 C 94.056 542.202, 77.575 558.047, 63 572.063 C 47.625 586.848, 32.722 600.235, 27.500 603.951 C 22.550 607.473, 18.301 610.511, 18.058 610.702 C 17.816 610.893, 26.168 619.701, 36.620 630.275 C 47.071 640.849, 58.825 653.069, 62.739 657.432 C 69.034 664.447, 70.047 665.206, 71.501 663.999 C 74.968 661.122, 77.364 654.679, 77.475 647.936 C 77.656 636.901, 80.279 632.956, 99.654 614.578 C 119.007 596.222, 123.698 593.337, 132.506 594.372 C 142.846 595.587, 148 592.811, 148 586.026 C 148 581.038, 145.606 569.657, 142.463 559.698 C 139.533 550.419, 139.421 546.847, 141.893 541.500 C 144.516 535.824, 149.107 530.478, 160 520.413 C 170.524 510.689, 172.080 509.194, 241 442.597 C 272.289 412.363, 290.920 395.077, 293.500 393.888 C 295.700 392.874, 298.992 392.034, 300.816 392.022 C 304.966 391.994, 307.174 390.849, 313.669 385.356 C 318.038 381.661, 319.006 380.200, 319.924 375.918 C 322.231 365.161, 325.532 360.381, 341.242 345.047 L 356.049 330.593 348.298 322.797 C 344.035 318.508, 340.311 315.023, 340.023 315.052 C 339.736 315.080, 297.691 356.705, 246.590 407.552 M 264.060 333.476 C 247.529 349.923, 247.500 349.960, 247.500 354.463 C 247.500 358.513, 247.987 359.461, 252.263 363.737 C 256.539 368.013, 257.487 368.500, 261.537 368.500 C 266.040 368.500, 266.077 368.471, 282.524 351.940 C 298.742 335.639, 299 335.311, 299 331.047 C 299 327.198, 298.458 326.172, 294.143 321.857 C 289.828 317.542, 288.802 317, 284.953 317 C 280.689 317, 280.361 317.258, 264.060 333.476 M 271.011 341.489 C 258.218 354.309, 257.636 355.065, 259.290 356.719 C 260.945 358.373, 261.709 357.782, 274.694 344.797 C 286.497 332.994, 288.179 330.921, 287.056 329.567 C 286.340 328.705, 285.466 328, 285.114 328 C 284.761 328, 278.415 334.070, 271.011 341.489 M 234.374 372.765 C 233.754 373.169, 229.830 380.025, 225.653 388 L 218.058 402.500 190.529 429.993 C 175.388 445.114, 163 458.187, 163 459.043 C 163 461.211, 165.015 463, 167.457 463 C 168.818 463, 179.033 453.457, 197.695 434.750 L 225.877 406.500 233.439 391.912 C 237.597 383.888, 241 376.833, 241 376.233 C 241 374.775, 238.153 371.996, 236.679 372.015 C 236.030 372.024, 234.993 372.361, 234.374 372.765 M 287.379 375.211 C 285.679 377.020, 284.005 379.309, 283.658 380.298 C 283.160 381.715, 282.336 381.970, 279.763 381.503 C 276.604 380.929, 275.753 381.658, 253.009 404.454 C 231.920 425.591, 229.640 428.194, 230.713 429.912 C 231.982 431.945, 232.345 431.540, 219.514 442.436 C 215.591 445.768, 215.557 445.853, 217.383 447.871 L 219.238 449.920 222.619 447.341 C 224.479 445.923, 226 444.235, 226 443.590 C 226 442.944, 227.952 440.501, 230.337 438.160 C 234.144 434.424, 234.832 434.092, 235.960 435.451 C 236.667 436.303, 237.981 437, 238.880 437 C 240.555 437, 287 391.222, 287 389.571 C 287 389.069, 286.284 387.866, 285.409 386.899 C 283.930 385.265, 284.089 384.968, 287.659 382.700 C 292.765 379.456, 295.252 376.550, 294.827 374.324 C 294.238 371.235, 290.720 371.653, 287.379 375.211 M 203.504 375.991 C 202.586 377.768, 202.215 380.007, 202.590 381.504 C 203.370 384.610, 201.563 387, 198.434 387 C 195.723 387, 193 390.421, 193 393.826 C 193 396.497, 182.252 409.980, 176.234 414.859 L 172.500 417.885 175.746 421.169 C 179.621 425.090, 177.146 427.087, 196.938 404.069 C 209.388 389.590, 210.892 387.463, 209.592 386.164 C 208.293 384.864, 208.348 384.237, 210.059 380.884 C 211.127 378.792, 212 376.848, 212 376.566 C 212 376.040, 206.523 373, 205.575 373 C 205.287 373, 204.355 374.346, 203.504 375.991 M 198.364 392.493 C 198.018 393.396, 198.214 394.614, 198.800 395.200 C 200.324 396.724, 203.210 395.331, 202.812 393.265 C 202.369 390.963, 199.165 390.407, 198.364 392.493 M 255.477 463.059 L 247.500 471.118 249.861 473.059 C 251.281 474.227, 253.738 475, 256.027 475 C 258.121 475, 260.005 475.515, 260.215 476.144 C 260.683 477.549, 269 463.993, 269 461.825 C 269 460.169, 265.330 455, 264.154 455 C 263.768 455, 259.864 458.627, 255.477 463.059 M 218 483.001 C 205.446 495.099, 202.785 498.130, 204 498.953 C 204.825 499.512, 205.795 499.976, 206.157 499.985 C 206.518 499.993, 213.268 511.246, 221.157 524.992 C 232.355 544.505, 235.938 549.986, 237.500 549.992 C 238.600 549.996, 242.244 548.311, 245.598 546.248 C 255.709 540.029, 255.480 540.583, 250.157 535.205 C 245.375 530.373, 231.323 506.107, 228.980 498.633 C 228.294 496.443, 228.027 492.758, 228.365 490.133 C 229.737 479.475, 230.877 474.138, 232.418 471.159 C 233.316 469.421, 233.927 468.014, 233.776 468.032 C 233.624 468.050, 226.525 474.785, 218 483.001 M 242.607 478.582 C 241.739 480.845, 241.711 480.799, 244.950 482.474 C 248.982 484.559, 253.312 484.389, 256.139 482.033 L 258.500 480.067 254 479.998 C 251.525 479.960, 248.375 479.286, 247 478.500 C 243.786 476.663, 243.340 476.671, 242.607 478.582 M 180.750 484.080 C 178.051 485.652, 178.488 490.619, 181.500 492.592 C 183.816 494.109, 184.184 494.109, 186.500 492.592 C 192.483 488.671, 186.945 480.472, 180.750 484.080 M 100.180 540.768 C 97.913 542.290, 86.142 552.940, 74.021 564.434 C 48.471 588.665, 46.535 591.420, 46.585 603.464 C 46.606 608.544, 47.235 611.880, 48.846 615.463 C 51.692 621.796, 53.548 623.846, 58.500 626.119 C 67.371 630.193, 73.372 627.676, 87.850 613.806 C 116.749 586.122, 123.731 578.923, 125.513 574.972 C 127.324 570.956, 127.325 570.529, 125.572 560.168 C 123.499 547.924, 122.472 545.500, 117.516 541.148 C 112.654 536.879, 106.181 536.737, 100.180 540.768 M 90.889 569.361 C 66.079 592.781, 62.992 596.101, 62.022 600.404 C 61.093 604.520, 62.269 610.148, 64.432 611.943 C 66.134 613.356, 71.941 608.404, 95.705 585.273 L 111.910 569.500 110.482 561.611 C 109.697 557.272, 108.880 553.547, 108.667 553.333 C 108.453 553.120, 100.453 560.332, 90.889 569.361 M 64.059 645.941 C 61.587 648.413, 61.449 650.768, 63.595 653.832 C 65.928 657.162, 71.856 656.544, 73.969 652.750 C 75.344 650.281, 75.344 649.719, 73.969 647.250 C 71.962 643.645, 67.009 642.991, 64.059 645.941" stroke="none" fill="#353535" fill-rule="evenodd"/></svg>