<?xml version="1.0" encoding="UTF-8"?>
<svg id="svg9" xmlns="http://www.w3.org/2000/svg" xmlns:xlink="http://www.w3.org/1999/xlink" viewBox="0 0 225.31 38.03">
  <defs>
    <style>
      .cls-1 {
        fill: url(#linear-gradient-2);
      }

      .cls-2 {
        fill: rgba(247, 238, 238, .35);
      }

      .cls-3 {
        fill: url(#radial-gradient);
      }

      .cls-4 {
        fill: url(#linear-gradient);
      }
    </style>
    <linearGradient id="linear-gradient" x1="-7.34" y1="9.09" x2="70.19" y2="9.09" gradientTransform="translate(9.58 34.13) rotate(-1.12) scale(1 -1)" gradientUnits="userSpaceOnUse">
      <stop offset="0" stop-color="#360500"/>
      <stop offset=".32" stop-color="#3e2700"/>
      <stop offset=".66" stop-color="#1b2a27"/>
      <stop offset="1" stop-color="#001440"/>
    </linearGradient>
    <linearGradient id="linear-gradient-2" x1="252.39" y1="-68.41" x2="126.69" y2="-2.63" gradientTransform="translate(-25.88 -15.96) rotate(.44) scale(.92 -1)" gradientUnits="userSpaceOnUse">
      <stop offset="0" stop-color="#1a27de"/>
      <stop offset=".4" stop-color="#20e195"/>
      <stop offset=".59" stop-color="#7db146"/>
      <stop offset="1" stop-color="#940cec"/>
    </linearGradient>
    <radialGradient id="radial-gradient" cx="240.75" cy="1435.87" fx="240.75" fy="1435.87" r="14.12" gradientTransform="translate(-100.96 1364.88) rotate(37.55) scale(.42 -.82) skewX(-52.4)" gradientUnits="userSpaceOnUse">
      <stop offset="0" stop-color="#ffc4c7"/>
      <stop offset=".6" stop-color="#890000"/>
    </radialGradient>
  </defs>
  <polygon id="rect1143" class="cls-2" points="10.15 31.54 5.64 30.16 9.03 26.9 13.54 28.27 10.15 31.54"/>
  <g>
    <g id="path1073">
      <path class="cls-4" d="M2.07,25.62c16.34-4.03,42.14-8.3,76.71-12.7.52,4,.78,7.61.76,9.48-32.06,3.37-55.62,8.71-75.24,13.5l-2.23-10.29Z"/>
      <path d="M77.04,15.16c.23,2.08.39,3.99.46,5.44-30.18,3.28-52.78,8.28-71.68,12.87l-1.38-6.37c16.01-3.8,40.4-7.81,72.6-11.94M80.49,10.69C41.97,15.54,16.85,19.88,1.23,23.77c0,0-1.5.58-1.18,1.92l2.37,10.92c.37,1.35,1.63,1.42,1.63,1.42h0c20.28-4.97,44.17-10.42,77.29-13.8.56-1.53-.1-8.54-.84-13.53h0Z"/>
    </g>
    <polygon id="rect1129" class="cls-2" points="69.95 21.17 65.61 19.34 69.32 16.43 73.66 18.26 69.95 21.17"/>
    <polygon id="rect1131" class="cls-2" points="61.37 22.29 57.03 20.46 60.74 17.56 65.08 19.39 61.37 22.29"/>
    <polygon id="rect1133" class="cls-2" points="52.74 23.47 48.37 21.73 52.01 18.75 56.39 20.49 52.74 23.47"/>
    <polygon id="rect1135" class="cls-2" points="44.38 24.67 39.97 23.01 43.56 19.96 47.97 21.62 44.38 24.67"/>
    <polygon id="rect1137" class="cls-2" points="35.76 26.25 31.33 24.66 34.88 21.56 39.31 23.15 35.76 26.25"/>
    <polygon id="rect1139" class="cls-2" points="27.02 27.9 22.57 26.37 26.08 23.22 30.53 24.76 27.02 27.9"/>
    <polygon id="rect1141" class="cls-2" points="18.46 29.68 14 28.17 17.49 25 21.94 26.52 18.46 29.68"/>
    <g id="path1075">
      <path class="cls-1" d="M221.4,23.89c-26.29-3.62-51.18-5.38-75.97-5.38-22.14,0-44.07,1.43-66.97,4.36l.08-10.04c6.88-.71,33.16-3.2,65.06-3.2,24.76,0,47.24,1.47,66.81,4.37,5.35,2.87,8.94,6.99,10.99,9.89Z"/>
      <path d="M143.6,7.63v4c24.52,0,46.77,1.45,66.17,4.3,2.78,1.54,5.05,3.45,6.83,5.3-24.52-3.17-47.89-4.72-71.17-4.72-21.49,0-42.79,1.34-64.95,4.09l.05-5.96c8.87-.88,33.55-3.01,63.07-3.01v-4M143.6,7.63c-37.61,0-67.04,3.41-67.04,3.41l-.11,14.12c21.61-2.85,44.31-4.64,68.99-4.64,24.42,0,50.77,1.75,79.87,5.95,0,0-4.34-9.21-14.25-14.38-22.55-3.37-46.29-4.45-67.45-4.45h0Z"/>
    </g>
    <g id="path1077">
      <polygon class="cls-3" points="75.52 2.19 77.52 2.04 78.34 12.38 83.05 12 83.95 22.61 79.05 23.28 79.9 33.95 77.91 34.1 75.52 2.19"/>
      <path d="M81.22,14.15l.57,6.73-1.14.15-1.7.23-.52-6.89,2.06-.17.72-.06M78,0s-.09,0-.13,0l-2.99.22c-.83.06-1.45.68-1.4,1.39l2.49,33.34c.05.67.69,1.18,1.46,1.18.04,0,.09,0,.13,0l2.99-.22c.83-.06,1.46-.68,1.4-1.39l-.76-9.5,4.9-.67-1.23-14.5-4.69.39-.72-9.05h0C79.41.5,78.77,0,78,0h0Z"/>
    </g>
  </g>
</svg>